<svg width="27" height="13" viewBox="0 0 27 13" fill="none"
    xmlns="http://www.w3.org/2000/svg">
    <path opacity="0.35" d="M2.66667 0.5H22.3333C23.53 0.5 24.5 1.47005 24.5 2.66667V10.3333C24.5 11.53 23.5299 12.5 22.3333 12.5H2.66667C1.47005 12.5 0.5 11.53 0.5 10.3333V2.66667C0.5 1.47005 1.47005 0.5 2.66667 0.5Z" stroke="#090A0A"/>
    <path opacity="0.4" d="M25.6499 5V9C26.4546 8.66122 26.9779 7.87313 26.9779 7C26.9779 6.12687 26.4546 5.33878 25.6499 5" fill="#090A0A"/>
    <path d="M2.30005 3.66659C2.30005 2.93021 2.897 2.33325 3.63338 2.33325H21.1667C21.903 2.33325 22.5 2.93021 22.5 3.66659V9.32992C22.5 10.0663 21.903 10.6633 21.1667 10.6633H3.63338C2.897 10.6633 2.30005 10.0663 2.30005 9.32992V3.66659Z" fill="#090A0A"/>
</svg>
