<svg width="337" height="104" viewBox="0 0 337 104" fill="none" xmlns="http://www.w3.org/2000/svg">
<path d="M1.29119 34H3.66264V28.4389H9.10227V26.451H3.66264V22.897H9.67756V20.9091H1.29119V34ZM14.4732 34.1982C16.0137 34.1982 16.9341 33.4759 17.356 32.6513H17.4327V34H19.6571V27.429C19.6571 24.8338 17.5414 24.054 15.6685 24.054C13.6039 24.054 12.0186 24.9744 11.5073 26.7642L13.6678 27.071C13.8979 26.3999 14.5499 25.8246 15.6813 25.8246C16.7551 25.8246 17.3432 26.3743 17.3432 27.3395V27.3778C17.3432 28.0426 16.6465 28.0746 14.9142 28.2599C13.0094 28.4645 11.1877 29.0334 11.1877 31.245C11.1877 33.1754 12.6003 34.1982 14.4732 34.1982ZM15.074 32.4979C14.1088 32.4979 13.4185 32.0568 13.4185 31.2067C13.4185 30.3182 14.1919 29.9474 15.2275 29.8004C15.8347 29.7173 17.0492 29.5639 17.3496 29.321V30.478C17.3496 31.571 16.4675 32.4979 15.074 32.4979ZM26.2665 34.1918C28.7338 34.1918 30.3063 32.728 30.4725 30.6442H28.2608C28.0627 31.6989 27.302 32.3061 26.2857 32.3061C24.8411 32.3061 23.9078 31.098 23.9078 29.0909C23.9078 27.1094 24.8603 25.9205 26.2857 25.9205C27.3979 25.9205 28.0819 26.6364 28.2608 27.5824H30.4725C30.3127 25.4538 28.6507 24.054 26.2537 24.054C23.3773 24.054 21.562 26.1314 21.562 29.1293C21.562 32.1016 23.3326 34.1918 26.2665 34.1918ZM32.3725 34H34.6864V24.1818H32.3725V34ZM33.5359 22.7884C34.271 22.7884 34.8718 22.2259 34.8718 21.5355C34.8718 20.8388 34.271 20.2763 33.5359 20.2763C32.7944 20.2763 32.1935 20.8388 32.1935 21.5355C32.1935 22.2259 32.7944 22.7884 33.5359 22.7884ZM37.0659 34H39.3798V24.1818H37.0659V34ZM38.2292 22.7884C38.9643 22.7884 39.5652 22.2259 39.5652 21.5355C39.5652 20.8388 38.9643 20.2763 38.2292 20.2763C37.4877 20.2763 36.8869 20.8388 36.8869 21.5355C36.8869 22.2259 37.4877 22.7884 38.2292 22.7884ZM44.0732 20.9091H41.7592V34H44.0732V20.9091ZM46.4526 34H48.7665V24.1818H46.4526V34ZM47.6159 22.7884C48.351 22.7884 48.9519 22.2259 48.9519 21.5355C48.9519 20.8388 48.351 20.2763 47.6159 20.2763C46.8745 20.2763 46.2736 20.8388 46.2736 21.5355C46.2736 22.2259 46.8745 22.7884 47.6159 22.7884ZM56.0487 24.1818H54.1119V21.8295H51.7979V24.1818H50.4045V25.9716H51.7979V31.4304C51.7852 33.2777 53.1275 34.1854 54.8661 34.1342C55.5245 34.1151 55.9783 33.9872 56.2276 33.9041L55.8377 32.0952C55.7099 32.1271 55.4478 32.1847 55.1602 32.1847C54.5785 32.1847 54.1119 31.9801 54.1119 31.0469V25.9716H56.0487V24.1818ZM57.9838 34H60.2978V24.1818H57.9838V34ZM59.1472 22.7884C59.8823 22.7884 60.4831 22.2259 60.4831 21.5355C60.4831 20.8388 59.8823 20.2763 59.1472 20.2763C58.4057 20.2763 57.8049 20.8388 57.8049 21.5355C57.8049 22.2259 58.4057 22.7884 59.1472 22.7884ZM67.0238 34.1918C69.3121 34.1918 70.8846 33.0732 71.2937 31.3665L69.1332 31.1236C68.82 31.9545 68.0529 32.3892 67.0558 32.3892C65.56 32.3892 64.5692 31.4048 64.5501 29.7237H71.3896V29.0142C71.3896 25.5689 69.3185 24.054 66.9023 24.054C64.0898 24.054 62.2553 26.1186 62.2553 29.1484C62.2553 32.2294 64.0643 34.1918 67.0238 34.1918ZM64.5565 28.1641C64.6268 26.9112 65.5536 25.8565 66.9343 25.8565C68.2638 25.8565 69.1587 26.8281 69.1715 28.1641H64.5565ZM81.1071 26.777C80.7875 25.1151 79.4579 24.054 77.1568 24.054C74.7917 24.054 73.1809 25.2173 73.1873 27.0327C73.1809 28.4645 74.063 29.4105 75.9487 29.8004L77.6234 30.152C78.5247 30.3501 78.9466 30.7145 78.9466 31.2706C78.9466 31.9418 78.2179 32.4467 77.1184 32.4467C76.0574 32.4467 75.367 31.9865 75.1689 31.1044L72.9125 31.3217C73.2001 33.1243 74.715 34.1918 77.1248 34.1918C79.5794 34.1918 81.3116 32.9197 81.318 31.0597C81.3116 29.6598 80.4103 28.8033 78.5566 28.4006L76.8819 28.0426C75.8848 27.8189 75.4885 27.4737 75.4949 26.9048C75.4885 26.2401 76.2235 25.7798 77.1887 25.7798C78.2562 25.7798 78.8187 26.3615 78.9977 27.0071L81.1071 26.777Z" fill="black"/>
<path d="M2.3024 2.00007L336.302 1.00007M2.30239 103L336.302 102" stroke="#CDCDCD"/>
<path d="M13 53L5.4375 62L2 57.9091" stroke="#090A0A" stroke-width="2" stroke-linecap="round" stroke-linejoin="round"/>
<path d="M23.5547 62L24.2891 59.8828H27.4141L28.1445 62H29.4258L26.5469 54H25.1523L22.2734 62H23.5547ZM24.6406 58.8672L25.8203 55.4531H25.8828L27.0625 58.8672H24.6406ZM36.8496 56.6016C36.5762 54.8906 35.2363 53.8906 33.5449 53.8906C31.4746 53.8906 29.9473 55.4414 29.9473 58C29.9473 60.5586 31.4668 62.1094 33.5449 62.1094C35.3027 62.1094 36.5879 61.0078 36.8496 59.4258L35.6309 59.4219C35.4238 60.4453 34.5645 61.0078 33.5527 61.0078C32.1816 61.0078 31.1465 59.957 31.1465 58C31.1465 56.0586 32.1777 54.9922 33.5566 54.9922C34.5762 54.9922 35.4316 55.5664 35.6309 56.6016H36.8496ZM47.8496 56.6016C47.5762 54.8906 46.2363 53.8906 44.5449 53.8906C42.4746 53.8906 40.9473 55.4414 40.9473 58C40.9473 60.5586 42.4668 62.1094 44.5449 62.1094C46.3027 62.1094 47.5879 61.0078 47.8496 59.4258L46.6309 59.4219C46.4238 60.4453 45.5645 61.0078 44.5527 61.0078C43.1816 61.0078 42.1465 59.957 42.1465 58C42.1465 56.0586 43.1777 54.9922 44.5566 54.9922C45.5762 54.9922 46.4316 55.5664 46.6309 56.6016H47.8496ZM51.7275 62.1211C53.4189 62.1211 54.5244 60.8828 54.5244 59.0273C54.5244 57.1602 53.4189 55.9219 51.7275 55.9219C50.0361 55.9219 48.9307 57.1602 48.9307 59.0273C48.9307 60.8828 50.0361 62.1211 51.7275 62.1211ZM51.7314 61.1406C50.626 61.1406 50.1104 60.1758 50.1104 59.0234C50.1104 57.875 50.626 56.8984 51.7314 56.8984C52.8291 56.8984 53.3447 57.875 53.3447 59.0234C53.3447 60.1758 52.8291 61.1406 51.7314 61.1406ZM58.3555 62.1211C60.0469 62.1211 61.1523 60.8828 61.1523 59.0273C61.1523 57.1602 60.0469 55.9219 58.3555 55.9219C56.6641 55.9219 55.5586 57.1602 55.5586 59.0273C55.5586 60.8828 56.6641 62.1211 58.3555 62.1211ZM58.3594 61.1406C57.2539 61.1406 56.7383 60.1758 56.7383 59.0234C56.7383 57.875 57.2539 56.8984 58.3594 56.8984C59.457 56.8984 59.9727 57.875 59.9727 59.0234C59.9727 60.1758 59.457 61.1406 58.3594 61.1406ZM63.624 54H62.4561V62H63.624V54ZM65.1953 62H66.3633V56H65.1953V62ZM65.7852 55.0742C66.1875 55.0742 66.5234 54.7617 66.5234 54.3789C66.5234 53.9961 66.1875 53.6797 65.7852 53.6797C65.3789 53.6797 65.0469 53.9961 65.0469 54.3789C65.0469 54.7617 65.3789 55.0742 65.7852 55.0742ZM69.1025 58.4375C69.1025 57.4805 69.6885 56.9336 70.501 56.9336C71.2939 56.9336 71.7744 57.4531 71.7744 58.3242V62H72.9424V58.1836C72.9424 56.6992 72.126 55.9219 70.8994 55.9219C69.9971 55.9219 69.4072 56.3398 69.1299 56.9766H69.0557V56H67.9346V62H69.1025V58.4375ZM77.0244 64.375C78.5518 64.375 79.7314 63.6758 79.7314 62.1328V56H78.5869V56.9727H78.501C78.2939 56.6016 77.8799 55.9219 76.7627 55.9219C75.3135 55.9219 74.2471 57.0664 74.2471 58.9766C74.2471 60.8906 75.3369 61.9102 76.7549 61.9102C77.8564 61.9102 78.2822 61.2891 78.4932 60.9062H78.5674V62.0859C78.5674 63.0273 77.9229 63.4336 77.0361 63.4336C76.0635 63.4336 75.6846 62.9453 75.4775 62.6016L74.4736 63.0156C74.79 63.75 75.5908 64.375 77.0244 64.375ZM77.0127 60.9414C75.9697 60.9414 75.4268 60.1406 75.4268 58.9609C75.4268 57.8086 75.958 56.9141 77.0127 56.9141C78.0322 56.9141 78.5791 57.7461 78.5791 58.9609C78.5791 60.1992 78.0205 60.9414 77.0127 60.9414Z" fill="black"/>
<path d="M13 76L5.4375 85L2 80.9091" stroke="#090A0A" stroke-width="2" stroke-linecap="round" stroke-linejoin="round"/>
<path d="M22.8789 85H27.7109V83.9609H24.0859V77H22.8789V85ZM31.5215 85.1211C33.2129 85.1211 34.3184 83.8828 34.3184 82.0273C34.3184 80.1602 33.2129 78.9219 31.5215 78.9219C29.8301 78.9219 28.7246 80.1602 28.7246 82.0273C28.7246 83.8828 29.8301 85.1211 31.5215 85.1211ZM31.5254 84.1406C30.4199 84.1406 29.9043 83.1758 29.9043 82.0234C29.9043 80.875 30.4199 79.8984 31.5254 79.8984C32.623 79.8984 33.1387 80.875 33.1387 82.0234C33.1387 83.1758 32.623 84.1406 31.5254 84.1406ZM39.4229 82.5117C39.4268 83.5312 38.6689 84.0156 38.0127 84.0156C37.29 84.0156 36.79 83.4922 36.79 82.6758V79H35.6221V82.8164C35.6221 84.3047 36.4385 85.0781 37.5908 85.0781C38.4932 85.0781 39.1064 84.6016 39.3838 83.9609H39.4463V85H40.5947V79H39.4229V82.5117ZM43.332 81.4375C43.332 80.4805 43.918 79.9336 44.7305 79.9336C45.5234 79.9336 46.0039 80.4531 46.0039 81.3242V85H47.1719V81.1836C47.1719 79.6992 46.3555 78.9219 45.1289 78.9219C44.2266 78.9219 43.6367 79.3398 43.3594 79.9766H43.2852V79H42.1641V85H43.332V81.4375ZM50.9844 85.1172C52.0781 85.1172 52.5078 84.4492 52.7188 84.0664H52.8164V85H53.957V77H52.7891V79.9727H52.7188C52.5078 79.6016 52.1094 78.9219 50.9922 78.9219C49.543 78.9219 48.4766 80.0664 48.4766 82.0117C48.4766 83.9531 49.5273 85.1172 50.9844 85.1172ZM51.2422 84.1211C50.1992 84.1211 49.6563 83.2031 49.6563 82C49.6563 80.8086 50.1875 79.9141 51.2422 79.9141C52.2617 79.9141 52.8086 80.7461 52.8086 82C52.8086 83.2617 52.25 84.1211 51.2422 84.1211ZM55.624 85H56.792V81.3359C56.792 80.5508 57.3975 79.9844 58.2256 79.9844C58.4678 79.9844 58.7412 80.0273 58.835 80.0547V78.9375C58.7178 78.9219 58.4873 78.9102 58.3389 78.9102C57.6357 78.9102 57.0342 79.3086 56.8154 79.9531H56.7529V79H55.624V85ZM60.7666 87.25C61.7314 87.25 62.3408 86.7461 62.6885 85.8008L65.1689 79.0117L63.9072 79L62.3877 83.6562H62.3252L60.8057 79H59.5557L61.751 85.0781L61.6064 85.4766C61.3096 86.2734 60.8916 86.3398 60.251 86.1641L59.9697 87.1211C60.1104 87.1836 60.415 87.25 60.7666 87.25Z" fill="black"/>
<path d="M114 76L106.438 85L103 80.9091" stroke="#090A0A" stroke-width="2" stroke-linecap="round" stroke-linejoin="round"/>
<path d="M123.879 85H128.941V83.9609H125.086V81.5117H128.633V80.4766H125.086V78.0391H128.895V77H123.879V85ZM131.581 77H130.413V85H131.581V77ZM135.738 85.1211C137.047 85.1211 137.973 84.4766 138.238 83.5L137.133 83.3008C136.922 83.8672 136.414 84.1562 135.75 84.1562C134.75 84.1562 134.078 83.5078 134.047 82.3516H138.313V81.9375C138.313 79.7695 137.016 78.9219 135.656 78.9219C133.984 78.9219 132.883 80.1953 132.883 82.0391C132.883 83.9023 133.969 85.1211 135.738 85.1211ZM134.051 81.4766C134.098 80.625 134.715 79.8867 135.664 79.8867C136.57 79.8867 137.164 80.5586 137.168 81.4766H134.051ZM144.559 79H143.305L141.789 83.6172H141.727L140.207 79H138.953L141.133 85H142.383L144.559 79ZM147.22 85.1328C148.212 85.1328 148.771 84.6289 148.993 84.1797H149.04V85H150.181V81.0156C150.181 79.2695 148.806 78.9219 147.853 78.9219C146.767 78.9219 145.767 79.3594 145.376 80.4531L146.474 80.7031C146.646 80.2773 147.083 79.8672 147.868 79.8672C148.622 79.8672 149.009 80.2617 149.009 80.9414V80.9687C149.009 81.3945 148.571 81.3867 147.493 81.5117C146.356 81.6445 145.192 81.9414 145.192 83.3047C145.192 84.4844 146.079 85.1328 147.22 85.1328ZM147.474 84.1953C146.813 84.1953 146.337 83.8984 146.337 83.3203C146.337 82.6953 146.892 82.4727 147.567 82.3828C147.946 82.332 148.845 82.2305 149.013 82.0625V82.8359C149.013 83.5469 148.446 84.1953 147.474 84.1953ZM154.537 79H153.307V77.5625H152.139V79H151.26V79.9375H152.139V83.4805C152.135 84.5703 152.967 85.0977 153.889 85.0781C154.26 85.0742 154.51 85.0039 154.646 84.9531L154.436 83.9883C154.357 84.0039 154.213 84.0391 154.025 84.0391C153.646 84.0391 153.307 83.9141 153.307 83.2383V79.9375H154.537V79ZM158.292 85.1211C159.983 85.1211 161.089 83.8828 161.089 82.0273C161.089 80.1602 159.983 78.9219 158.292 78.9219C156.601 78.9219 155.495 80.1602 155.495 82.0273C155.495 83.8828 156.601 85.1211 158.292 85.1211ZM158.296 84.1406C157.19 84.1406 156.675 83.1758 156.675 82.0234C156.675 80.875 157.19 79.8984 158.296 79.8984C159.394 79.8984 159.909 80.875 159.909 82.0234C159.909 83.1758 159.394 84.1406 158.296 84.1406ZM162.393 85H163.561V81.3359C163.561 80.5508 164.166 79.9844 164.994 79.9844C165.236 79.9844 165.51 80.0273 165.604 80.0547V78.9375C165.486 78.9219 165.256 78.9102 165.107 78.9102C164.404 78.9102 163.803 79.3086 163.584 79.9531H163.521V79H162.393V85Z" fill="black"/>
<path d="M215 77L207.438 86L204 81.9091" stroke="#090A0A" stroke-width="2" stroke-linecap="round" stroke-linejoin="round"/>
<path d="M229.242 80.1016H230.406C230.371 78.8203 229.238 77.8906 227.613 77.8906C226.008 77.8906 224.777 78.8086 224.777 80.1875C224.777 81.3008 225.574 81.9531 226.859 82.3008L227.805 82.5586C228.66 82.7852 229.32 83.0664 229.32 83.7773C229.32 84.5586 228.574 85.0742 227.547 85.0742C226.617 85.0742 225.844 84.6602 225.773 83.7891H224.563C224.641 85.2383 225.762 86.1328 227.555 86.1328C229.434 86.1328 230.516 85.1445 230.516 83.7891C230.516 82.3477 229.23 81.7891 228.215 81.5391L227.434 81.3359C226.809 81.1758 225.977 80.8828 225.98 80.1172C225.98 79.4375 226.602 78.9336 227.586 78.9336C228.504 78.9336 229.156 79.3633 229.242 80.1016ZM234.45 86.1211C235.759 86.1211 236.685 85.4766 236.95 84.5L235.845 84.3008C235.634 84.8672 235.126 85.1562 234.462 85.1562C233.462 85.1562 232.79 84.5078 232.759 83.3516H237.024V82.9375C237.024 80.7695 235.728 79.9219 234.368 79.9219C232.696 79.9219 231.595 81.1953 231.595 83.0391C231.595 84.9023 232.681 86.1211 234.45 86.1211ZM232.763 82.4766C232.81 81.625 233.427 80.8867 234.376 80.8867C235.282 80.8867 235.876 81.5586 235.88 82.4766H232.763ZM240.848 86.1211C242.266 86.1211 243.184 85.2695 243.312 84.1016H242.176C242.027 84.75 241.523 85.1328 240.855 85.1328C239.867 85.1328 239.23 84.3086 239.23 83C239.23 81.7148 239.879 80.9062 240.855 80.9062C241.598 80.9062 242.051 81.375 242.176 81.9375H243.312C243.188 80.7266 242.199 79.9219 240.836 79.9219C239.145 79.9219 238.051 81.1953 238.051 83.0273C238.051 84.8359 239.105 86.1211 240.848 86.1211ZM248.362 83.5117C248.366 84.5312 247.608 85.0156 246.952 85.0156C246.229 85.0156 245.729 84.4922 245.729 83.6758V80H244.562V83.8164C244.562 85.3047 245.378 86.0781 246.53 86.0781C247.433 86.0781 248.046 85.6016 248.323 84.9609H248.386V86H249.534V80H248.362V83.5117ZM251.104 86H252.271V82.3359C252.271 81.5508 252.877 80.9844 253.705 80.9844C253.947 80.9844 254.221 81.0273 254.314 81.0547V79.9375C254.197 79.9219 253.967 79.9102 253.818 79.9102C253.115 79.9102 252.514 80.3086 252.295 80.9531H252.232V80H251.104V86ZM255.325 86H256.493V80H255.325V86ZM255.915 79.0742C256.317 79.0742 256.653 78.7617 256.653 78.3789C256.653 77.9961 256.317 77.6797 255.915 77.6797C255.509 77.6797 255.177 77.9961 255.177 78.3789C255.177 78.7617 255.509 79.0742 255.915 79.0742ZM260.865 80H259.635V78.5625H258.467V80H257.588V80.9375H258.467V84.4805C258.463 85.5703 259.295 86.0977 260.217 86.0781C260.588 86.0742 260.838 86.0039 260.975 85.9531L260.764 84.9883C260.686 85.0039 260.541 85.0391 260.354 85.0391C259.975 85.0391 259.635 84.9141 259.635 84.2383V80.9375H260.865V80ZM262.896 88.25C263.86 88.25 264.47 87.7461 264.817 86.8008L267.298 80.0117L266.036 80L264.517 84.6562H264.454L262.935 80H261.685L263.88 86.0781L263.735 86.4766C263.438 87.2734 263.021 87.3398 262.38 87.1641L262.099 88.1211C262.239 88.1836 262.544 88.25 262.896 88.25Z" fill="black"/>
<path d="M114 54L106.438 63L103 58.9091" stroke="#090A0A" stroke-width="2" stroke-linecap="round" stroke-linejoin="round"/>
<path d="M123.879 63H125.086V59.5117H129.074V63H130.285V55H129.074V58.4766H125.086V55H123.879V63ZM134.535 63.1211C135.844 63.1211 136.77 62.4766 137.035 61.5L135.93 61.3008C135.719 61.8672 135.211 62.1562 134.547 62.1562C133.547 62.1562 132.875 61.5078 132.844 60.3516H137.109V59.9375C137.109 57.7695 135.813 56.9219 134.453 56.9219C132.781 56.9219 131.68 58.1953 131.68 60.0391C131.68 61.9023 132.766 63.1211 134.535 63.1211ZM132.848 59.4766C132.895 58.625 133.512 57.8867 134.461 57.8867C135.367 57.8867 135.961 58.5586 135.965 59.4766H132.848ZM140.151 63.1328C141.144 63.1328 141.702 62.6289 141.925 62.1797H141.972V63H143.112V59.0156C143.112 57.2695 141.737 56.9219 140.784 56.9219C139.698 56.9219 138.698 57.3594 138.308 58.4531L139.405 58.7031C139.577 58.2773 140.015 57.8672 140.8 57.8672C141.554 57.8672 141.94 58.2617 141.94 58.9414V58.9687C141.94 59.3945 141.503 59.3867 140.425 59.5117C139.288 59.6445 138.124 59.9414 138.124 61.3047C138.124 62.4844 139.011 63.1328 140.151 63.1328ZM140.405 62.1953C139.745 62.1953 139.269 61.8984 139.269 61.3203C139.269 60.6953 139.823 60.4727 140.499 60.3828C140.878 60.332 141.776 60.2305 141.944 60.0625V60.8359C141.944 61.5469 141.378 62.1953 140.405 62.1953ZM147.469 57H146.238V55.5625H145.07V57H144.191V57.9375H145.07V61.4805C145.066 62.5703 145.898 63.0977 146.82 63.0781C147.191 63.0742 147.441 63.0039 147.578 62.9531L147.367 61.9883C147.289 62.0039 147.145 62.0391 146.957 62.0391C146.578 62.0391 146.238 61.9141 146.238 61.2383V57.9375H147.469V57ZM148.761 63H149.929V57H148.761V63ZM149.351 56.0742C149.753 56.0742 150.089 55.7617 150.089 55.3789C150.089 54.9961 149.753 54.6797 149.351 54.6797C148.944 54.6797 148.612 54.9961 148.612 55.3789C148.612 55.7617 148.944 56.0742 149.351 56.0742ZM152.668 59.4375C152.668 58.4805 153.254 57.9336 154.066 57.9336C154.859 57.9336 155.34 58.4531 155.34 59.3242V63H156.508V59.1836C156.508 57.6992 155.691 56.9219 154.465 56.9219C153.563 56.9219 152.973 57.3398 152.695 57.9766H152.621V57H151.5V63H152.668V59.4375ZM160.59 65.375C162.117 65.375 163.297 64.6758 163.297 63.1328V57H162.152V57.9727H162.066C161.859 57.6016 161.445 56.9219 160.328 56.9219C158.879 56.9219 157.813 58.0664 157.813 59.9766C157.813 61.8906 158.902 62.9102 160.32 62.9102C161.422 62.9102 161.848 62.2891 162.059 61.9062H162.133V63.0859C162.133 64.0273 161.488 64.4336 160.602 64.4336C159.629 64.4336 159.25 63.9453 159.043 63.6016L158.039 64.0156C158.355 64.75 159.156 65.375 160.59 65.375ZM160.578 61.9414C159.535 61.9414 158.992 61.1406 158.992 59.9609C158.992 58.8086 159.523 57.9141 160.578 57.9141C161.598 57.9141 162.145 58.7461 162.145 59.9609C162.145 61.1992 161.586 61.9414 160.578 61.9414Z" fill="black"/>
<path d="M215 55L207.438 64L204 59.9091" stroke="#090A0A" stroke-width="2" stroke-linecap="round" stroke-linejoin="round"/>
<path d="M226.445 64H227.664L229.348 58.0078H229.41L231.094 64H232.309L234.531 56H233.258L231.703 62.1992H231.629L230.008 56H228.75L227.129 62.1953H227.055L225.496 56H224.227L226.445 64ZM235.538 64H236.706V58H235.538V64ZM236.128 57.0742C236.53 57.0742 236.866 56.7617 236.866 56.3789C236.866 55.9961 236.53 55.6797 236.128 55.6797C235.722 55.6797 235.39 55.9961 235.39 56.3789C235.39 56.7617 235.722 57.0742 236.128 57.0742ZM238.371 64H239.578V60.5117H242.977V59.4766H239.578V57.0391H243.332V56H238.371V64ZM244.723 64H245.891V58H244.723V64ZM245.312 57.0742C245.715 57.0742 246.051 56.7617 246.051 56.3789C246.051 55.9961 245.715 55.6797 245.312 55.6797C244.906 55.6797 244.574 55.9961 244.574 56.3789C244.574 56.7617 244.906 57.0742 245.312 57.0742Z" fill="black"/>
</svg>
