<svg width="259" height="350" viewBox="0 0 259 350" fill="none" xmlns="http://www.w3.org/2000/svg">
<path d="M1.11861 20H5.02131C7.38778 20 8.45668 18.8217 8.45668 17.2607C8.45668 15.6847 7.35298 14.7947 6.34375 14.7401V14.6406C7.27841 14.402 8.05895 13.7656 8.05895 12.4929C8.05895 10.9865 7.01492 9.81818 4.8473 9.81818H1.11861V20ZM2.65483 18.6825V15.4212H4.92685C6.1598 15.4212 6.9304 16.2166 6.9304 17.1861C6.9304 18.0412 6.34872 18.6825 4.87216 18.6825H2.65483ZM2.65483 14.223V11.1257H4.75284C5.97088 11.1257 6.55256 11.767 6.55256 12.6122C6.55256 13.5966 5.74716 14.223 4.71307 14.223H2.65483ZM13.4506 20.1541C15.1161 20.1541 16.2944 19.3338 16.6325 18.0909L15.2255 17.8374C14.957 18.5582 14.3107 18.9261 13.4656 18.9261C12.1928 18.9261 11.3377 18.1009 11.2979 16.6293H16.7269V16.1023C16.7269 13.343 15.0763 12.2642 13.3462 12.2642C11.2184 12.2642 9.81641 13.8849 9.81641 16.2315C9.81641 18.603 11.1985 20.1541 13.4506 20.1541ZM11.3029 15.5156C11.3626 14.4318 12.1481 13.4922 13.3562 13.4922C14.5096 13.4922 15.2653 14.3473 15.2702 15.5156H11.3029ZM21.2349 20.1491C22.627 20.1491 23.1738 19.299 23.4423 18.8118H23.5666V20H25.0183V9.81818H23.5318V13.6016H23.4423C23.1738 13.1293 22.6667 12.2642 21.2449 12.2642C19.4004 12.2642 18.0431 13.7209 18.0431 16.1967C18.0431 18.6676 19.3805 20.1491 21.2349 20.1491ZM21.563 18.8814C20.2356 18.8814 19.5446 17.7131 19.5446 16.1818C19.5446 14.6655 20.2207 13.527 21.563 13.527C22.8606 13.527 23.5566 14.5859 23.5566 16.1818C23.5566 17.7876 22.8457 18.8814 21.563 18.8814ZM27.1399 20H28.6264V15.3366C28.6264 14.3374 29.397 13.6165 30.451 13.6165C30.7592 13.6165 31.1072 13.6712 31.2266 13.706V12.2841C31.0774 12.2642 30.7841 12.2493 30.5952 12.2493C29.7003 12.2493 28.9347 12.7564 28.6562 13.5767H28.5767V12.3636H27.1399V20ZM35.4561 20.1541C37.6088 20.1541 39.0158 18.5781 39.0158 16.2166C39.0158 13.8402 37.6088 12.2642 35.4561 12.2642C33.3034 12.2642 31.8965 13.8402 31.8965 16.2166C31.8965 18.5781 33.3034 20.1541 35.4561 20.1541ZM35.4611 18.9062C34.0542 18.9062 33.3979 17.6783 33.3979 16.2116C33.3979 14.75 34.0542 13.5071 35.4611 13.5071C36.8581 13.5071 37.5144 14.75 37.5144 16.2116C37.5144 17.6783 36.8581 18.9062 35.4611 18.9062ZM43.8917 20.1541C46.0444 20.1541 47.4513 18.5781 47.4513 16.2166C47.4513 13.8402 46.0444 12.2642 43.8917 12.2642C41.739 12.2642 40.332 13.8402 40.332 16.2166C40.332 18.5781 41.739 20.1541 43.8917 20.1541ZM43.8967 18.9062C42.4897 18.9062 41.8335 17.6783 41.8335 16.2116C41.8335 14.75 42.4897 13.5071 43.8967 13.5071C45.2937 13.5071 45.9499 14.75 45.9499 16.2116C45.9499 17.6783 45.2937 18.9062 43.8967 18.9062ZM49.1106 20H50.5971V15.2919C50.5971 14.2628 51.318 13.5469 52.1632 13.5469C52.9885 13.5469 53.5602 14.0938 53.5602 14.924V20H55.0417V15.1328C55.0417 14.2131 55.6035 13.5469 56.573 13.5469C57.3585 13.5469 58.0048 13.9844 58.0048 15.0185V20H59.4913V14.8793C59.4913 13.1342 58.5169 12.2642 57.1348 12.2642C56.036 12.2642 55.2108 12.7912 54.8429 13.6065H54.7633C54.4302 12.7713 53.7292 12.2642 52.71 12.2642C51.7008 12.2642 50.9501 12.7663 50.6319 13.6065H50.5375V12.3636H49.1106V20ZM67.206 14.228C66.8977 13.0398 65.968 12.2642 64.3175 12.2642C62.5923 12.2642 61.3693 13.174 61.3693 14.5263C61.3693 15.6101 62.0256 16.331 63.4574 16.6491L64.75 16.9325C65.4858 17.0966 65.8288 17.4247 65.8288 17.902C65.8288 18.4936 65.1974 18.956 64.223 18.956C63.3331 18.956 62.7614 18.5732 62.5824 17.8224L61.1456 18.0412C61.3942 19.3935 62.5178 20.1541 64.233 20.1541C66.0774 20.1541 67.3551 19.1747 67.3551 17.7926C67.3551 16.7138 66.669 16.0476 65.267 15.7244L64.054 15.446C63.2138 15.2472 62.8509 14.9638 62.8558 14.4467C62.8509 13.8601 63.4872 13.4425 64.3324 13.4425C65.2571 13.4425 65.6847 13.9545 65.8587 14.4666L67.206 14.228ZM69.9689 14.5362C70.5108 14.5362 70.9632 14.0938 70.9632 13.5419C70.9632 13 70.5108 12.5526 69.9689 12.5526C69.4221 12.5526 68.9746 13 68.9746 13.5419C68.9746 14.0938 69.4221 14.5362 69.9689 14.5362ZM69.9689 20.0945C70.5108 20.0945 70.9632 19.652 70.9632 19.1001C70.9632 18.5582 70.5108 18.1108 69.9689 18.1108C69.4221 18.1108 68.9746 18.5582 68.9746 19.1001C68.9746 19.652 69.4221 20.0945 69.9689 20.0945Z" fill="#090A0A"/>
<path d="M83 9C83 4.58172 86.5817 1 91 1H209C213.418 1 217 4.58172 217 9V22C217 26.4183 213.418 30 209 30H91C86.5817 30 83 26.4183 83 22V9Z" fill="white"/>
<path d="M99.9034 20H105.409V19.0625H101.352V18.9943L103.312 16.8977C104.812 15.2912 105.256 14.5412 105.256 13.5739C105.256 12.2273 104.165 11.1534 102.631 11.1534C101.101 11.1534 99.9375 12.1932 99.9375 13.7273H100.943C100.943 12.7344 101.587 12.0739 102.597 12.0739C103.543 12.0739 104.267 12.6534 104.267 13.5739C104.267 14.3793 103.794 14.9759 102.784 16.0795L99.9034 19.233V20Z" fill="#72777A"/>
<path d="M91 2H209V0H91V2ZM216 9V22H218V9H216ZM209 29H91V31H209V29ZM84 22V9H82V22H84ZM91 29C87.134 29 84 25.866 84 22H82C82 26.9706 86.0294 31 91 31V29ZM216 22C216 25.866 212.866 29 209 29V31C213.971 31 218 26.9706 218 22H216ZM209 2C212.866 2 216 5.13401 216 9H218C218 4.02944 213.971 0 209 0V2ZM91 0C86.0294 0 82 4.02944 82 9H84C84 5.13401 87.134 2 91 2V0Z" fill="#E3E5E6"/>
<path d="M194 13L200.5 19L207 13" stroke="#958585" stroke-width="2" stroke-linecap="round" stroke-linejoin="round"/>
<path d="M1.11861 64H2.65483V59.5604H6.98011V58.2429H2.65483V55.1406H7.43253V53.8182H1.11861V64ZM10.6889 53.8182H9.20241V64H10.6889V53.8182ZM15.9054 64.1541C18.0581 64.1541 19.465 62.5781 19.465 60.2166C19.465 57.8402 18.0581 56.2642 15.9054 56.2642C13.7527 56.2642 12.3457 57.8402 12.3457 60.2166C12.3457 62.5781 13.7527 64.1541 15.9054 64.1541ZM15.9103 62.9062C14.5034 62.9062 13.8471 61.6783 13.8471 60.2116C13.8471 58.75 14.5034 57.5071 15.9103 57.5071C17.3074 57.5071 17.9636 58.75 17.9636 60.2116C17.9636 61.6783 17.3074 62.9062 15.9103 62.9062ZM24.3409 64.1541C26.4936 64.1541 27.9006 62.5781 27.9006 60.2166C27.9006 57.8402 26.4936 56.2642 24.3409 56.2642C22.1882 56.2642 20.7812 57.8402 20.7812 60.2166C20.7812 62.5781 22.1882 64.1541 24.3409 64.1541ZM24.3459 62.9062C22.9389 62.9062 22.2827 61.6783 22.2827 60.2116C22.2827 58.75 22.9389 57.5071 24.3459 57.5071C25.7429 57.5071 26.3991 58.75 26.3991 60.2116C26.3991 61.6783 25.7429 62.9062 24.3459 62.9062ZM29.5598 64H31.0463V59.3366C31.0463 58.3374 31.8169 57.6165 32.8709 57.6165C33.1792 57.6165 33.5272 57.6712 33.6465 57.706V56.2841C33.4973 56.2642 33.204 56.2493 33.0151 56.2493C32.1202 56.2493 31.3546 56.7564 31.0762 57.5767H30.9966V56.3636H29.5598V64ZM35.9123 58.5362C36.4542 58.5362 36.9066 58.0938 36.9066 57.5419C36.9066 57 36.4542 56.5526 35.9123 56.5526C35.3654 56.5526 34.918 57 34.918 57.5419C34.918 58.0938 35.3654 58.5362 35.9123 58.5362ZM35.9123 64.0945C36.4542 64.0945 36.9066 63.652 36.9066 63.1001C36.9066 62.5582 36.4542 62.1108 35.9123 62.1108C35.3654 62.1108 34.918 62.5582 34.918 63.1001C34.918 63.652 35.3654 64.0945 35.9123 64.0945Z" fill="#090A0A"/>
<path d="M83 53C83 48.5817 86.5817 45 91 45H209C213.418 45 217 48.5817 217 53V66C217 70.4183 213.418 74 209 74H91C86.5817 74 83 70.4183 83 66V53Z" fill="white"/>
<path d="M99.9034 64H105.409V63.0625H101.352V62.9943L103.312 60.8977C104.812 59.2912 105.256 58.5412 105.256 57.5739C105.256 56.2273 104.165 55.1534 102.631 55.1534C101.101 55.1534 99.9375 56.1932 99.9375 57.7273H100.943C100.943 56.7344 101.587 56.0739 102.597 56.0739C103.543 56.0739 104.267 56.6534 104.267 57.5739C104.267 58.3793 103.794 58.9759 102.784 60.0795L99.9034 63.233V64Z" fill="#72777A"/>
<path d="M91 46H209V44H91V46ZM216 53V66H218V53H216ZM209 73H91V75H209V73ZM84 66V53H82V66H84ZM91 73C87.134 73 84 69.866 84 66H82C82 70.9706 86.0294 75 91 75V73ZM216 66C216 69.866 212.866 73 209 73V75C213.971 75 218 70.9706 218 66H216ZM209 46C212.866 46 216 49.134 216 53H218C218 48.0294 213.971 44 209 44V46ZM91 44C86.0294 44 82 48.0294 82 53H84C84 49.134 87.134 46 91 46V44Z" fill="#E3E5E6"/>
<path d="M194 57L200.5 63L207 57" stroke="#958585" stroke-width="2" stroke-linecap="round" stroke-linejoin="round"/>
<path d="M1.11861 108H2.65483V104.833L3.85795 103.451L7.14915 108H8.99858L4.87713 102.402L8.98367 97.8182H7.04972L2.77912 102.68H2.65483V97.8182H1.11861V108ZM10.7747 108H12.2612V100.364H10.7747V108ZM11.5254 99.1854C12.0375 99.1854 12.465 98.7876 12.465 98.3004C12.465 97.8132 12.0375 97.4105 11.5254 97.4105C11.0083 97.4105 10.5858 97.8132 10.5858 98.3004C10.5858 98.7876 11.0083 99.1854 11.5254 99.1854ZM17.8256 100.364H16.2596V98.5341H14.7731V100.364H13.6545V101.557H14.7731V106.066C14.7681 107.453 15.8271 108.124 17.0004 108.099C17.4727 108.094 17.7908 108.005 17.9648 107.94L17.6964 106.712C17.5969 106.732 17.413 106.777 17.1744 106.777C16.6921 106.777 16.2596 106.618 16.2596 105.758V101.557H17.8256V100.364ZM22.6046 108.154C24.4093 108.154 25.5776 107.07 25.7417 105.584H24.2949C24.106 106.409 23.4647 106.896 22.6145 106.896C21.3567 106.896 20.5463 105.847 20.5463 104.182C20.5463 102.546 21.3716 101.517 22.6145 101.517C23.5591 101.517 24.1358 102.114 24.2949 102.83H25.7417C25.5826 101.288 24.3248 100.264 22.5897 100.264C20.437 100.264 19.0449 101.885 19.0449 104.217C19.0449 106.518 20.3873 108.154 22.6046 108.154ZM28.8178 103.466C28.8178 102.248 29.5884 101.552 30.6474 101.552C31.6715 101.552 32.283 102.203 32.283 103.322V108H33.7695V103.143C33.7695 101.239 32.7255 100.264 31.1545 100.264C29.9663 100.264 29.2504 100.781 28.8924 101.607H28.7979V97.8182H27.3313V108H28.8178V103.466ZM39.0444 108.154C40.7099 108.154 41.8881 107.334 42.2262 106.091L40.8192 105.837C40.5508 106.558 39.9045 106.926 39.0593 106.926C37.7866 106.926 36.9315 106.101 36.8917 104.629H42.3207V104.102C42.3207 101.343 40.6701 100.264 38.94 100.264C36.8121 100.264 35.4102 101.885 35.4102 104.232C35.4102 106.603 36.7923 108.154 39.0444 108.154ZM36.8967 103.516C36.9563 102.432 37.7418 101.492 38.9499 101.492C40.1033 101.492 40.859 102.347 40.864 103.516H36.8967ZM45.4565 103.466C45.4565 102.248 46.2022 101.552 47.2363 101.552C48.2456 101.552 48.8571 102.213 48.8571 103.322V108H50.3436V103.143C50.3436 101.254 49.3045 100.264 47.7434 100.264C46.595 100.264 45.8443 100.796 45.4913 101.607H45.3968V100.364H43.97V108H45.4565V103.466ZM53.3166 102.536C53.8585 102.536 54.3109 102.094 54.3109 101.542C54.3109 101 53.8585 100.553 53.3166 100.553C52.7697 100.553 52.3223 101 52.3223 101.542C52.3223 102.094 52.7697 102.536 53.3166 102.536ZM53.3166 108.094C53.8585 108.094 54.3109 107.652 54.3109 107.1C54.3109 106.558 53.8585 106.111 53.3166 106.111C52.7697 106.111 52.3223 106.558 52.3223 107.1C52.3223 107.652 52.7697 108.094 53.3166 108.094Z" fill="#090A0A"/>
<path d="M83 97C83 92.5817 86.5817 89 91 89H209C213.418 89 217 92.5817 217 97V110C217 114.418 213.418 118 209 118H91C86.5817 118 83 114.418 83 110V97Z" fill="white"/>
<path d="M100.057 108H101.114V104.591H103.023C103.099 104.591 103.172 104.591 103.244 104.587L105.085 108H106.312L104.339 104.395C105.452 104.016 105.972 103.108 105.972 101.949C105.972 100.406 105.051 99.2727 103.006 99.2727H100.057V108ZM101.114 103.636V100.21H102.972C104.386 100.21 104.932 100.901 104.932 101.949C104.932 102.997 104.386 103.636 102.989 103.636H101.114ZM110.27 108.136C111.6 108.136 112.571 107.472 112.878 106.483L111.907 106.21C111.651 106.892 111.059 107.233 110.27 107.233C109.09 107.233 108.276 106.47 108.229 105.068H112.98V104.642C112.98 102.205 111.532 101.369 110.168 101.369C108.395 101.369 107.219 102.767 107.219 104.778C107.219 106.79 108.378 108.136 110.27 108.136ZM108.229 104.199C108.297 103.18 109.017 102.273 110.168 102.273C111.259 102.273 111.958 103.091 111.958 104.199H108.229ZM119.982 110.455V101.455H119.01V102.494H118.891C118.669 102.153 118.277 101.369 116.999 101.369C115.346 101.369 114.203 102.682 114.203 104.744C114.203 106.824 115.346 108.136 116.982 108.136C118.243 108.136 118.669 107.352 118.891 106.994H118.976V110.455H119.982ZM118.993 104.727C118.993 106.21 118.328 107.233 117.118 107.233C115.857 107.233 115.209 106.125 115.209 104.727C115.209 103.347 115.84 102.273 117.118 102.273C118.346 102.273 118.993 103.261 118.993 104.727ZM125.948 105.324C125.948 106.551 125.01 107.114 124.26 107.114C123.425 107.114 122.828 106.5 122.828 105.545V101.455H121.823V105.614C121.823 107.284 122.709 108.085 123.936 108.085C124.925 108.085 125.573 107.557 125.88 106.892H125.948V108H126.953V101.455H125.948V105.324ZM128.795 108H129.801V101.455H128.795V108ZM129.307 100.364C129.699 100.364 130.023 100.057 130.023 99.6818C130.023 99.3068 129.699 99 129.307 99C128.915 99 128.591 99.3068 128.591 99.6818C128.591 100.057 128.915 100.364 129.307 100.364ZM131.643 108H132.649V103.858C132.649 102.972 133.348 102.324 134.302 102.324C134.571 102.324 134.848 102.375 134.916 102.392V101.369C134.801 101.361 134.537 101.352 134.387 101.352C133.603 101.352 132.922 101.795 132.683 102.443H132.615V101.455H131.643V108ZM138.653 108.136C139.983 108.136 140.954 107.472 141.261 106.483L140.289 106.21C140.034 106.892 139.441 107.233 138.653 107.233C137.473 107.233 136.659 106.47 136.612 105.068H141.363V104.642C141.363 102.205 139.914 101.369 138.551 101.369C136.778 101.369 135.602 102.767 135.602 104.778C135.602 106.79 136.761 108.136 138.653 108.136ZM136.612 104.199C136.68 103.18 137.4 102.273 138.551 102.273C139.642 102.273 140.341 103.091 140.341 104.199H136.612ZM145.365 108.136C146.626 108.136 147.052 107.352 147.274 106.994H147.393V108H148.365V99.2727H147.359V102.494H147.274C147.052 102.153 146.66 101.369 145.382 101.369C143.728 101.369 142.586 102.682 142.586 104.744C142.586 106.824 143.728 108.136 145.365 108.136ZM145.501 107.233C144.24 107.233 143.592 106.125 143.592 104.727C143.592 103.347 144.223 102.273 145.501 102.273C146.728 102.273 147.376 103.261 147.376 104.727C147.376 106.21 146.711 107.233 145.501 107.233Z" fill="#72777A"/>
<path d="M91 90H209V88H91V90ZM216 97V110H218V97H216ZM209 117H91V119H209V117ZM84 110V97H82V110H84ZM91 117C87.134 117 84 113.866 84 110H82C82 114.971 86.0294 119 91 119V117ZM216 110C216 113.866 212.866 117 209 117V119C213.971 119 218 114.971 218 110H216ZM209 90C212.866 90 216 93.134 216 97H218C218 92.0294 213.971 88 209 88V90ZM91 88C86.0294 88 82 92.0294 82 97H84C84 93.134 87.134 90 91 90V88Z" fill="#E3E5E6"/>
<path d="M194 101L200.5 107L207 101" stroke="#958585" stroke-width="2" stroke-linecap="round" stroke-linejoin="round"/>
<path d="M1.11861 152H2.65483V148.147H4.7429C4.7777 148.147 4.80753 148.147 4.84233 148.147L6.91051 152H8.66051L6.40341 147.879C7.65128 147.416 8.27273 146.377 8.27273 145.01C8.27273 143.136 7.10938 141.818 4.74787 141.818H1.11861V152ZM2.65483 146.825V143.136H4.58381C6.10014 143.136 6.72656 143.857 6.72656 145.01C6.72656 146.158 6.10014 146.825 4.60369 146.825H2.65483ZM12.245 152.169C13.5078 152.169 14.2188 151.528 14.5021 150.956H14.5618V152H16.0135V146.929C16.0135 144.707 14.2635 144.264 13.0504 144.264C11.6683 144.264 10.3956 144.821 9.89844 146.213L11.2955 146.531C11.5142 145.989 12.071 145.467 13.0703 145.467C14.0298 145.467 14.522 145.969 14.522 146.835V146.869C14.522 147.411 13.9652 147.401 12.593 147.56C11.1463 147.729 9.66477 148.107 9.66477 149.842C9.66477 151.344 10.7933 152.169 12.245 152.169ZM12.5682 150.976C11.728 150.976 11.1214 150.598 11.1214 149.862C11.1214 149.067 11.8274 148.783 12.6875 148.669C13.1697 148.604 14.3132 148.475 14.527 148.261V149.246C14.527 150.151 13.8061 150.976 12.5682 150.976ZM20.8521 152.149C22.2441 152.149 22.791 151.299 23.0595 150.812H23.1838V152H24.6355V141.818H23.149V145.602H23.0595C22.791 145.129 22.2839 144.264 20.862 144.264C19.0176 144.264 17.6603 145.721 17.6603 148.197C17.6603 150.668 18.9977 152.149 20.8521 152.149ZM21.1802 150.881C19.8528 150.881 19.1618 149.713 19.1618 148.182C19.1618 146.665 19.8379 145.527 21.1802 145.527C22.4778 145.527 23.1738 146.586 23.1738 148.182C23.1738 149.788 22.4629 150.881 21.1802 150.881ZM26.7571 152H28.2436V144.364H26.7571V152ZM27.5078 143.185C28.0199 143.185 28.4474 142.788 28.4474 142.3C28.4474 141.813 28.0199 141.411 27.5078 141.411C26.9908 141.411 26.5682 141.813 26.5682 142.3C26.5682 142.788 26.9908 143.185 27.5078 143.185ZM35.0808 148.833C35.0858 150.131 34.1213 150.747 33.286 150.747C32.3663 150.747 31.7299 150.081 31.7299 149.042V144.364H30.2434V149.221C30.2434 151.115 31.2825 152.099 32.7491 152.099C33.8975 152.099 34.6781 151.493 35.0311 150.678H35.1106V152H36.5723V144.364H35.0808V148.833ZM44.2919 146.228C43.9837 145.04 43.054 144.264 41.4034 144.264C39.6783 144.264 38.4553 145.174 38.4553 146.526C38.4553 147.61 39.1115 148.331 40.5433 148.649L41.8359 148.933C42.5717 149.097 42.9148 149.425 42.9148 149.902C42.9148 150.494 42.2834 150.956 41.3089 150.956C40.419 150.956 39.8473 150.573 39.6683 149.822L38.2315 150.041C38.4801 151.393 39.6037 152.154 41.3189 152.154C43.1634 152.154 44.4411 151.175 44.4411 149.793C44.4411 148.714 43.755 148.048 42.353 147.724L41.1399 147.446C40.2997 147.247 39.9368 146.964 39.9418 146.447C39.9368 145.86 40.5732 145.442 41.4183 145.442C42.343 145.442 42.7706 145.955 42.9446 146.467L44.2919 146.228ZM47.0549 146.536C47.5968 146.536 48.0492 146.094 48.0492 145.542C48.0492 145 47.5968 144.553 47.0549 144.553C46.508 144.553 46.0605 145 46.0605 145.542C46.0605 146.094 46.508 146.536 47.0549 146.536ZM47.0549 152.094C47.5968 152.094 48.0492 151.652 48.0492 151.1C48.0492 150.558 47.5968 150.111 47.0549 150.111C46.508 150.111 46.0605 150.558 46.0605 151.1C46.0605 151.652 46.508 152.094 47.0549 152.094Z" fill="#090A0A"/>
<path d="M83 141C83 136.582 86.5817 133 91 133H209C213.418 133 217 136.582 217 141V154C217 158.418 213.418 162 209 162H91C86.5817 162 83 158.418 83 154V141Z" fill="white"/>
<path d="M102.972 143.273H101.915L99.733 144.722V145.795L101.864 144.381H101.915V152H102.972V143.273ZM108.328 152.119C110.254 152.119 111.362 150.487 111.362 147.636C111.362 144.807 110.237 143.153 108.328 143.153C106.419 143.153 105.294 144.807 105.294 147.636C105.294 150.487 106.402 152.119 108.328 152.119ZM108.328 151.182C107.058 151.182 106.317 149.908 106.317 147.636C106.317 145.369 107.067 144.074 108.328 144.074C109.589 144.074 110.339 145.369 110.339 147.636C110.339 149.908 109.598 151.182 108.328 151.182ZM116.374 152H117.379V147.909C117.379 146.95 118.078 146.273 118.862 146.273C119.625 146.273 120.158 146.771 120.158 147.517V152H121.18V147.739C121.18 146.895 121.709 146.273 122.629 146.273C123.345 146.273 123.959 146.652 123.959 147.619V152H124.964V147.619C124.964 146.081 124.138 145.369 122.97 145.369C122.033 145.369 121.347 145.8 121.01 146.477H120.942C120.618 145.778 120.047 145.369 119.186 145.369C118.334 145.369 117.703 145.778 117.43 146.477H117.345V145.455H116.374V152ZM126.803 152H127.809V145.455H126.803V152ZM127.315 144.364C127.707 144.364 128.031 144.057 128.031 143.682C128.031 143.307 127.707 143 127.315 143C126.923 143 126.599 143.307 126.599 143.682C126.599 144.057 126.923 144.364 127.315 144.364ZM130.657 143.273H129.651V152H130.657V143.273ZM135.243 152.136C136.572 152.136 137.544 151.472 137.851 150.483L136.879 150.21C136.624 150.892 136.031 151.233 135.243 151.233C134.062 151.233 133.249 150.47 133.202 149.068H137.953V148.642C137.953 146.205 136.504 145.369 135.141 145.369C133.368 145.369 132.192 146.767 132.192 148.778C132.192 150.79 133.351 152.136 135.243 152.136ZM133.202 148.199C133.27 147.18 133.99 146.273 135.141 146.273C136.232 146.273 136.93 147.091 136.93 148.199H133.202ZM144.119 146.92C143.804 145.991 143.097 145.369 141.801 145.369C140.42 145.369 139.398 146.153 139.398 147.261C139.398 148.165 139.935 148.77 141.136 149.051L142.227 149.307C142.888 149.46 143.199 149.776 143.199 150.227C143.199 150.79 142.602 151.25 141.665 151.25C140.842 151.25 140.327 150.896 140.148 150.193L139.193 150.432C139.428 151.544 140.344 152.136 141.682 152.136C143.203 152.136 144.239 151.305 144.239 150.176C144.239 149.264 143.668 148.689 142.5 148.403L141.528 148.165C140.753 147.973 140.403 147.713 140.403 147.21C140.403 146.648 141 146.239 141.801 146.239C142.679 146.239 143.041 146.724 143.216 147.176L144.119 146.92Z" fill="#72777A"/>
<path d="M91 134H209V132H91V134ZM216 141V154H218V141H216ZM209 161H91V163H209V161ZM84 154V141H82V154H84ZM91 161C87.134 161 84 157.866 84 154H82C82 158.971 86.0294 163 91 163V161ZM216 154C216 157.866 212.866 161 209 161V163C213.971 163 218 158.971 218 154H216ZM209 134C212.866 134 216 137.134 216 141H218C218 136.029 213.971 132 209 132V134ZM91 132C86.0294 132 82 136.029 82 141H84C84 137.134 87.134 134 91 134V132Z" fill="#E3E5E6"/>
<path d="M194 145L200.5 151L207 145" stroke="#958585" stroke-width="2" stroke-linecap="round" stroke-linejoin="round"/>
<path d="M1.11861 193H5.02131C7.38778 193 8.45668 191.822 8.45668 190.261C8.45668 188.685 7.35298 187.795 6.34375 187.74V187.641C7.27841 187.402 8.05895 186.766 8.05895 185.493C8.05895 183.987 7.01492 182.818 4.8473 182.818H1.11861V193ZM2.65483 191.683V188.421H4.92685C6.1598 188.421 6.9304 189.217 6.9304 190.186C6.9304 191.041 6.34872 191.683 4.87216 191.683H2.65483ZM2.65483 187.223V184.126H4.75284C5.97088 184.126 6.55256 184.767 6.55256 185.612C6.55256 186.597 5.74716 187.223 4.71307 187.223H2.65483ZM12.3817 193.169C13.6445 193.169 14.3555 192.528 14.6388 191.956H14.6985V193H16.1502V187.929C16.1502 185.707 14.4002 185.264 13.1871 185.264C11.805 185.264 10.5323 185.821 10.0352 187.213L11.4322 187.531C11.6509 186.989 12.2077 186.467 13.207 186.467C14.1665 186.467 14.6587 186.969 14.6587 187.835V187.869C14.6587 188.411 14.1019 188.401 12.7298 188.56C11.283 188.729 9.80149 189.107 9.80149 190.842C9.80149 192.344 10.93 193.169 12.3817 193.169ZM12.7049 191.976C11.8647 191.976 11.2582 191.598 11.2582 190.862C11.2582 190.067 11.9641 189.783 12.8242 189.669C13.3065 189.604 14.4499 189.475 14.6637 189.261V190.246C14.6637 191.151 13.9428 191.976 12.7049 191.976ZM21.3468 193.154C23.1515 193.154 24.3198 192.07 24.4838 190.584H23.0371C22.8482 191.409 22.2069 191.896 21.3567 191.896C20.0989 191.896 19.2885 190.847 19.2885 189.182C19.2885 187.546 20.1138 186.517 21.3567 186.517C22.3013 186.517 22.878 187.114 23.0371 187.83H24.4838C24.3248 186.288 23.0669 185.264 21.3319 185.264C19.1792 185.264 17.7871 186.885 17.7871 189.217C17.7871 191.518 19.1294 193.154 21.3468 193.154ZM26.0735 193H27.56V190.29L28.3008 189.55L30.896 193H32.7205L29.4194 188.64L32.5117 185.364H30.7319L27.6893 188.595H27.56V182.818H26.0735V193ZM34.8471 195.864C36.0751 195.864 36.8507 195.222 37.2931 194.019L40.4501 185.379L38.8443 185.364L36.9103 191.29H36.8308L34.8968 185.364H33.3059L36.1 193.099L35.916 193.607C35.5382 194.621 35.0062 194.705 34.1909 194.482L33.8329 195.7C34.0119 195.779 34.3997 195.864 34.8471 195.864ZM43.8407 193.169C45.1035 193.169 45.8145 192.528 46.0978 191.956H46.1575V193H47.6092V187.929C47.6092 185.707 45.8592 185.264 44.6461 185.264C43.264 185.264 41.9913 185.821 41.4941 187.213L42.8912 187.531C43.1099 186.989 43.6667 186.467 44.666 186.467C45.6255 186.467 46.1177 186.969 46.1177 187.835V187.869C46.1177 188.411 45.5609 188.401 44.1887 188.56C42.742 188.729 41.2605 189.107 41.2605 190.842C41.2605 192.344 42.389 193.169 43.8407 193.169ZM44.1639 191.976C43.3237 191.976 42.7172 191.598 42.7172 190.862C42.7172 190.067 43.4231 189.783 44.2832 189.669C44.7654 189.604 45.9089 189.475 46.1227 189.261V190.246C46.1227 191.151 45.4018 191.976 44.1639 191.976ZM49.5891 193H51.0756V188.337C51.0756 187.337 51.8462 186.616 52.9002 186.616C53.2085 186.616 53.5565 186.671 53.6758 186.706V185.284C53.5266 185.264 53.2333 185.249 53.0444 185.249C52.1495 185.249 51.3839 185.756 51.1055 186.577H51.0259V185.364H49.5891V193ZM57.5474 193.149C58.9395 193.149 59.4863 192.299 59.7548 191.812H59.8791V193H61.3308V182.818H59.8443V186.602H59.7548C59.4863 186.129 58.9792 185.264 57.5574 185.264C55.7129 185.264 54.3556 186.721 54.3556 189.197C54.3556 191.668 55.693 193.149 57.5474 193.149ZM57.8755 191.881C56.5481 191.881 55.8571 190.713 55.8571 189.182C55.8571 187.665 56.5332 186.527 57.8755 186.527C59.1731 186.527 59.8691 187.586 59.8691 189.182C59.8691 190.788 59.1582 191.881 57.8755 191.881ZM64.4318 187.536C64.9737 187.536 65.4261 187.094 65.4261 186.542C65.4261 186 64.9737 185.553 64.4318 185.553C63.8849 185.553 63.4375 186 63.4375 186.542C63.4375 187.094 63.8849 187.536 64.4318 187.536ZM64.4318 193.094C64.9737 193.094 65.4261 192.652 65.4261 192.1C65.4261 191.558 64.9737 191.111 64.4318 191.111C63.8849 191.111 63.4375 191.558 63.4375 192.1C63.4375 192.652 63.8849 193.094 64.4318 193.094Z" fill="#090A0A"/>
<path d="M83 182C83 177.582 86.5817 174 91 174H209C213.418 174 217 177.582 217 182V195C217 199.418 213.418 203 209 203H91C86.5817 203 83 199.418 83 195V182Z" fill="white"/>
<path d="M99.3068 184.273L102.46 189.403V193H103.517V189.403L106.67 184.273H105.46L103.04 188.347H102.938L100.517 184.273H99.3068ZM109.719 193.136C111.049 193.136 112.021 192.472 112.327 191.483L111.356 191.21C111.1 191.892 110.508 192.233 109.719 192.233C108.539 192.233 107.725 191.47 107.678 190.068H112.43V189.642C112.43 187.205 110.981 186.369 109.617 186.369C107.844 186.369 106.668 187.767 106.668 189.778C106.668 191.79 107.827 193.136 109.719 193.136ZM107.678 189.199C107.746 188.18 108.467 187.273 109.617 187.273C110.708 187.273 111.407 188.091 111.407 189.199H107.678ZM118.596 187.92C118.281 186.991 117.573 186.369 116.278 186.369C114.897 186.369 113.874 187.153 113.874 188.261C113.874 189.165 114.411 189.77 115.613 190.051L116.704 190.307C117.364 190.46 117.675 190.776 117.675 191.227C117.675 191.79 117.079 192.25 116.141 192.25C115.319 192.25 114.803 191.896 114.624 191.193L113.67 191.432C113.904 192.544 114.82 193.136 116.158 193.136C117.68 193.136 118.715 192.305 118.715 191.176C118.715 190.264 118.144 189.689 116.977 189.403L116.005 189.165C115.229 188.973 114.88 188.713 114.88 188.21C114.88 187.648 115.477 187.239 116.278 187.239C117.156 187.239 117.518 187.724 117.692 188.176L118.596 187.92Z" fill="#72777A"/>
<path d="M91 175H209V173H91V175ZM216 182V195H218V182H216ZM209 202H91V204H209V202ZM84 195V182H82V195H84ZM91 202C87.134 202 84 198.866 84 195H82C82 199.971 86.0294 204 91 204V202ZM216 195C216 198.866 212.866 202 209 202V204C213.971 204 218 199.971 218 195H216ZM209 175C212.866 175 216 178.134 216 182H218C218 177.029 213.971 173 209 173V175ZM91 173C86.0294 173 82 177.029 82 182H84C84 178.134 87.134 175 91 175V173Z" fill="#E3E5E6"/>
<path d="M194 186L200.5 192L207 186" stroke="#958585" stroke-width="2" stroke-linecap="round" stroke-linejoin="round"/>
<path d="M1.11861 246H2.65483V241.56H6.98011V240.243H2.65483V237.141H7.43253V235.818H1.11861V246ZM11.3974 246.169C12.6602 246.169 13.3711 245.528 13.6545 244.956H13.7141V246H15.1658V240.929C15.1658 238.707 13.4158 238.264 12.2028 238.264C10.8207 238.264 9.54794 238.821 9.05078 240.213L10.4478 240.531C10.6665 239.989 11.2234 239.467 12.2227 239.467C13.1822 239.467 13.6744 239.969 13.6744 240.835V240.869C13.6744 241.411 13.1175 241.401 11.7454 241.56C10.2987 241.729 8.81712 242.107 8.81712 243.842C8.81712 245.344 9.94567 246.169 11.3974 246.169ZM11.7205 244.976C10.8803 244.976 10.2738 244.598 10.2738 243.862C10.2738 243.067 10.9798 242.783 11.8398 242.669C12.3221 242.604 13.4656 242.475 13.6793 242.261V243.246C13.6793 244.151 12.9585 244.976 11.7205 244.976ZM20.3624 246.154C22.1671 246.154 23.3354 245.07 23.4995 243.584H22.0527C21.8638 244.409 21.2225 244.896 20.3723 244.896C19.1145 244.896 18.3042 243.847 18.3042 242.182C18.3042 240.546 19.1294 239.517 20.3723 239.517C21.3169 239.517 21.8936 240.114 22.0527 240.83H23.4995C23.3404 239.288 22.0826 238.264 20.3475 238.264C18.1948 238.264 16.8027 239.885 16.8027 242.217C16.8027 244.518 18.1451 246.154 20.3624 246.154ZM25.0891 246H26.5756V238.364H25.0891V246ZM25.8398 237.185C26.3519 237.185 26.7795 236.788 26.7795 236.3C26.7795 235.813 26.3519 235.411 25.8398 235.411C25.3228 235.411 24.9002 235.813 24.9002 236.3C24.9002 236.788 25.3228 237.185 25.8398 237.185ZM30.062 235.818H28.5755V246H30.062V235.818ZM32.0618 246H33.5483V238.364H32.0618V246ZM32.8125 237.185C33.3246 237.185 33.7521 236.788 33.7521 236.3C33.7521 235.813 33.3246 235.411 32.8125 235.411C32.2955 235.411 31.8729 235.813 31.8729 236.3C31.8729 236.788 32.2955 237.185 32.8125 237.185ZM39.1127 238.364H37.5467V236.534H36.0602V238.364H34.9416V239.557H36.0602V244.066C36.0552 245.453 37.1142 246.124 38.2875 246.099C38.7598 246.094 39.0779 246.005 39.252 245.94L38.9835 244.712C38.8841 244.732 38.7001 244.777 38.4615 244.777C37.9792 244.777 37.5467 244.618 37.5467 243.758V239.557H39.1127V238.364ZM40.7571 246H42.2436V238.364H40.7571V246ZM41.5078 237.185C42.0199 237.185 42.4474 236.788 42.4474 236.3C42.4474 235.813 42.0199 235.411 41.5078 235.411C40.9908 235.411 40.5682 235.813 40.5682 236.3C40.5682 236.788 40.9908 237.185 41.5078 237.185ZM47.5346 246.154C49.2001 246.154 50.3784 245.334 50.7164 244.091L49.3095 243.837C49.041 244.558 48.3947 244.926 47.5495 244.926C46.2768 244.926 45.4217 244.101 45.3819 242.629H50.8109V242.102C50.8109 239.343 49.1603 238.264 47.4302 238.264C45.3024 238.264 43.9004 239.885 43.9004 242.232C43.9004 244.603 45.2825 246.154 47.5346 246.154ZM45.3869 241.516C45.4466 240.432 46.2321 239.492 47.4402 239.492C48.5936 239.492 49.3493 240.347 49.3542 241.516H45.3869ZM58.1825 240.228C57.8743 239.04 56.9446 238.264 55.294 238.264C53.5689 238.264 52.3459 239.174 52.3459 240.526C52.3459 241.61 53.0021 242.331 54.4339 242.649L55.7266 242.933C56.4624 243.097 56.8054 243.425 56.8054 243.902C56.8054 244.494 56.174 244.956 55.1996 244.956C54.3097 244.956 53.7379 244.573 53.5589 243.822L52.1222 244.041C52.3707 245.393 53.4943 246.154 55.2095 246.154C57.054 246.154 58.3317 245.175 58.3317 243.793C58.3317 242.714 57.6456 242.048 56.2436 241.724L55.0305 241.446C54.1903 241.247 53.8274 240.964 53.8324 240.447C53.8274 239.86 54.4638 239.442 55.3089 239.442C56.2337 239.442 56.6612 239.955 56.8352 240.467L58.1825 240.228ZM60.9455 240.536C61.4874 240.536 61.9398 240.094 61.9398 239.542C61.9398 239 61.4874 238.553 60.9455 238.553C60.3986 238.553 59.9512 239 59.9512 239.542C59.9512 240.094 60.3986 240.536 60.9455 240.536ZM60.9455 246.094C61.4874 246.094 61.9398 245.652 61.9398 245.1C61.9398 244.558 61.4874 244.111 60.9455 244.111C60.3986 244.111 59.9512 244.558 59.9512 245.1C59.9512 245.652 60.3986 246.094 60.9455 246.094Z" fill="#090A0A"/>
<rect x="0.5" y="270.5" width="15" height="15" fill="white" stroke="#C4C4C4"/>
<rect x="0.5" y="302.5" width="15" height="15" fill="white" stroke="#C4C4C4"/>
<rect x="0.5" y="334.5" width="15" height="15" fill="white" stroke="#C4C4C4"/>
<rect x="165.5" y="334.5" width="15" height="15" fill="white" stroke="#C4C4C4"/>
<rect x="165.5" y="302.5" width="15" height="15" fill="white" stroke="#C4C4C4"/>
<rect x="165.5" y="270.5" width="15" height="15" fill="white" stroke="#C4C4C4"/>
<path d="M31.5547 282L32.2891 279.883H35.4141L36.1445 282H37.4258L34.5469 274H33.1523L30.2734 282H31.5547ZM32.6406 278.867L33.8203 275.453H33.8828L35.0625 278.867H32.6406ZM44.8496 276.602C44.5762 274.891 43.2363 273.891 41.5449 273.891C39.4746 273.891 37.9473 275.441 37.9473 278C37.9473 280.559 39.4668 282.109 41.5449 282.109C43.3027 282.109 44.5879 281.008 44.8496 279.426L43.6309 279.422C43.4238 280.445 42.5645 281.008 41.5527 281.008C40.1816 281.008 39.1465 279.957 39.1465 278C39.1465 276.059 40.1777 274.992 41.5566 274.992C42.5762 274.992 43.4316 275.566 43.6309 276.602H44.8496ZM55.8496 276.602C55.5762 274.891 54.2363 273.891 52.5449 273.891C50.4746 273.891 48.9473 275.441 48.9473 278C48.9473 280.559 50.4668 282.109 52.5449 282.109C54.3027 282.109 55.5879 281.008 55.8496 279.426L54.6309 279.422C54.4238 280.445 53.5645 281.008 52.5527 281.008C51.1816 281.008 50.1465 279.957 50.1465 278C50.1465 276.059 51.1777 274.992 52.5566 274.992C53.5762 274.992 54.4316 275.566 54.6309 276.602H55.8496ZM59.7275 282.121C61.4189 282.121 62.5244 280.883 62.5244 279.027C62.5244 277.16 61.4189 275.922 59.7275 275.922C58.0361 275.922 56.9307 277.16 56.9307 279.027C56.9307 280.883 58.0361 282.121 59.7275 282.121ZM59.7314 281.141C58.626 281.141 58.1104 280.176 58.1104 279.023C58.1104 277.875 58.626 276.898 59.7314 276.898C60.8291 276.898 61.3447 277.875 61.3447 279.023C61.3447 280.176 60.8291 281.141 59.7314 281.141ZM66.3555 282.121C68.0469 282.121 69.1523 280.883 69.1523 279.027C69.1523 277.16 68.0469 275.922 66.3555 275.922C64.6641 275.922 63.5586 277.16 63.5586 279.027C63.5586 280.883 64.6641 282.121 66.3555 282.121ZM66.3594 281.141C65.2539 281.141 64.7383 280.176 64.7383 279.023C64.7383 277.875 65.2539 276.898 66.3594 276.898C67.457 276.898 67.9727 277.875 67.9727 279.023C67.9727 280.176 67.457 281.141 66.3594 281.141ZM71.624 274H70.4561V282H71.624V274ZM73.1953 282H74.3633V276H73.1953V282ZM73.7852 275.074C74.1875 275.074 74.5234 274.762 74.5234 274.379C74.5234 273.996 74.1875 273.68 73.7852 273.68C73.3789 273.68 73.0469 273.996 73.0469 274.379C73.0469 274.762 73.3789 275.074 73.7852 275.074ZM77.1025 278.437C77.1025 277.48 77.6885 276.934 78.501 276.934C79.2939 276.934 79.7744 277.453 79.7744 278.324V282H80.9424V278.184C80.9424 276.699 80.126 275.922 78.8994 275.922C77.9971 275.922 77.4072 276.34 77.1299 276.977H77.0557V276H75.9346V282H77.1025V278.437ZM85.0244 284.375C86.5518 284.375 87.7314 283.676 87.7314 282.133V276H86.5869V276.973H86.501C86.2939 276.602 85.8799 275.922 84.7627 275.922C83.3135 275.922 82.2471 277.066 82.2471 278.977C82.2471 280.891 83.3369 281.91 84.7549 281.91C85.8564 281.91 86.2822 281.289 86.4932 280.906H86.5674V282.086C86.5674 283.027 85.9229 283.434 85.0361 283.434C84.0635 283.434 83.6846 282.945 83.4775 282.602L82.4736 283.016C82.79 283.75 83.5908 284.375 85.0244 284.375ZM85.0127 280.941C83.9697 280.941 83.4268 280.141 83.4268 278.961C83.4268 277.809 83.958 276.914 85.0127 276.914C86.0322 276.914 86.5791 277.746 86.5791 278.961C86.5791 280.199 86.0205 280.941 85.0127 280.941Z" fill="black"/>
<path d="M30.8789 314H35.7109V312.961H32.0859V306H30.8789V314ZM36.9941 314H38.1621V308H36.9941V314ZM37.584 307.074C37.9863 307.074 38.3223 306.762 38.3223 306.379C38.3223 305.996 37.9863 305.68 37.584 305.68C37.1777 305.68 36.8457 305.996 36.8457 306.379C36.8457 306.762 37.1777 307.074 37.584 307.074ZM44.8662 308H43.6123L42.0967 312.617H42.0342L40.5146 308H39.2607L41.4404 314H42.6904L44.8662 308ZM45.9639 314H47.1318V308H45.9639V314ZM46.5537 307.074C46.9561 307.074 47.292 306.762 47.292 306.379C47.292 305.996 46.9561 305.68 46.5537 305.68C46.1475 305.68 45.8154 305.996 45.8154 306.379C45.8154 306.762 46.1475 307.074 46.5537 307.074ZM49.8711 310.437C49.8711 309.48 50.457 308.934 51.2695 308.934C52.0625 308.934 52.543 309.453 52.543 310.324V314H53.7109V310.184C53.7109 308.699 52.8945 307.922 51.668 307.922C50.7656 307.922 50.1758 308.34 49.8984 308.977H49.8242V308H48.7031V314H49.8711V310.437ZM57.793 316.375C59.3203 316.375 60.5 315.676 60.5 314.133V308H59.3555V308.973H59.2695C59.0625 308.602 58.6484 307.922 57.5312 307.922C56.082 307.922 55.0156 309.066 55.0156 310.977C55.0156 312.891 56.1055 313.91 57.5234 313.91C58.625 313.91 59.0508 313.289 59.2617 312.906H59.3359V314.086C59.3359 315.027 58.6914 315.434 57.8047 315.434C56.832 315.434 56.4531 314.945 56.2461 314.602L55.2422 315.016C55.5586 315.75 56.3594 316.375 57.793 316.375ZM57.7813 312.941C56.7383 312.941 56.1953 312.141 56.1953 310.961C56.1953 309.809 56.7266 308.914 57.7813 308.914C58.8008 308.914 59.3477 309.746 59.3477 310.961C59.3477 312.199 58.7891 312.941 57.7813 312.941ZM64.9775 314H66.1455V310.336C66.1455 309.551 66.751 308.984 67.5791 308.984C67.8213 308.984 68.0947 309.027 68.1885 309.055V307.937C68.0713 307.922 67.8408 307.91 67.6924 307.91C66.9893 307.91 66.3877 308.309 66.1689 308.953H66.1064V308H64.9775V314ZM71.5117 314.121C73.2031 314.121 74.3086 312.883 74.3086 311.027C74.3086 309.16 73.2031 307.922 71.5117 307.922C69.8203 307.922 68.7148 309.16 68.7148 311.027C68.7148 312.883 69.8203 314.121 71.5117 314.121ZM71.5156 313.141C70.4102 313.141 69.8945 312.176 69.8945 311.023C69.8945 309.875 70.4102 308.898 71.5156 308.898C72.6133 308.898 73.1289 309.875 73.1289 311.023C73.1289 312.176 72.6133 313.141 71.5156 313.141ZM78.1396 314.121C79.8311 314.121 80.9365 312.883 80.9365 311.027C80.9365 309.16 79.8311 307.922 78.1396 307.922C76.4482 307.922 75.3428 309.16 75.3428 311.027C75.3428 312.883 76.4482 314.121 78.1396 314.121ZM78.1436 313.141C77.0381 313.141 76.5225 312.176 76.5225 311.023C76.5225 309.875 77.0381 308.898 78.1436 308.898C79.2412 308.898 79.7568 309.875 79.7568 311.023C79.7568 312.176 79.2412 313.141 78.1436 313.141ZM82.2402 314H83.4082V310.301C83.4082 309.492 83.9746 308.93 84.6387 308.93C85.2871 308.93 85.7363 309.359 85.7363 310.012V314H86.9004V310.176C86.9004 309.453 87.3418 308.93 88.1035 308.93C88.7207 308.93 89.2285 309.273 89.2285 310.086V314H90.3965V309.977C90.3965 308.605 89.6309 307.922 88.5449 307.922C87.6816 307.922 87.0332 308.336 86.7441 308.977H86.6816C86.4199 308.32 85.8691 307.922 85.0684 307.922C84.2754 307.922 83.6855 308.316 83.4355 308.977H83.3613V308H82.2402V314Z" fill="black"/>
<path d="M30.8789 346H32.0859V343.188H33.7266C35.582 343.188 36.5 342.066 36.5 340.59C36.5 339.117 35.5898 338 33.7305 338H30.8789V346ZM32.0859 342.164V339.035H33.6016C34.7969 339.035 35.2852 339.684 35.2852 340.59C35.2852 341.496 34.7969 342.164 33.6172 342.164H32.0859ZM39.5137 346.133C40.5059 346.133 41.0645 345.629 41.2871 345.18H41.334V346H42.4746V342.016C42.4746 340.27 41.0996 339.922 40.1465 339.922C39.0605 339.922 38.0605 340.359 37.6699 341.453L38.7676 341.703C38.9395 341.277 39.377 340.867 40.1621 340.867C40.916 340.867 41.3027 341.262 41.3027 341.941V341.969C41.3027 342.395 40.8652 342.387 39.7871 342.512C38.6504 342.645 37.4863 342.941 37.4863 344.305C37.4863 345.484 38.373 346.133 39.5137 346.133ZM39.7676 345.195C39.1074 345.195 38.6309 344.898 38.6309 344.32C38.6309 343.695 39.1855 343.473 39.8613 343.383C40.2402 343.332 41.1387 343.23 41.3066 343.062V343.836C41.3066 344.547 40.7402 345.195 39.7676 345.195ZM44.0303 346H45.1982V342.336C45.1982 341.551 45.8037 340.984 46.6318 340.984C46.874 340.984 47.1475 341.027 47.2412 341.055V339.937C47.124 339.922 46.8936 339.91 46.7451 339.91C46.042 339.91 45.4404 340.309 45.2217 340.953H45.1592V340H44.0303V346ZM48.252 346H49.4199V343.871L50.002 343.289L52.041 346H53.4746L50.8809 342.574L53.3105 340H51.9121L49.5215 342.539H49.4199V338H48.252V346ZM54.375 346H55.543V340H54.375V346ZM54.9648 339.074C55.3672 339.074 55.7031 338.762 55.7031 338.379C55.7031 337.996 55.3672 337.68 54.9648 337.68C54.5586 337.68 54.2266 337.996 54.2266 338.379C54.2266 338.762 54.5586 339.074 54.9648 339.074ZM58.2822 342.437C58.2822 341.48 58.8682 340.934 59.6807 340.934C60.4736 340.934 60.9541 341.453 60.9541 342.324V346H62.1221V342.184C62.1221 340.699 61.3057 339.922 60.0791 339.922C59.1768 339.922 58.5869 340.34 58.3096 340.977H58.2354V340H57.1143V346H58.2822V342.437ZM66.2041 348.375C67.7314 348.375 68.9111 347.676 68.9111 346.133V340H67.7666V340.973H67.6807C67.4736 340.602 67.0596 339.922 65.9424 339.922C64.4932 339.922 63.4268 341.066 63.4268 342.977C63.4268 344.891 64.5166 345.91 65.9346 345.91C67.0361 345.91 67.4619 345.289 67.6729 344.906H67.7471V346.086C67.7471 347.027 67.1025 347.434 66.2158 347.434C65.2432 347.434 64.8643 346.945 64.6572 346.602L63.6533 347.016C63.9697 347.75 64.7705 348.375 66.2041 348.375ZM66.1924 344.941C65.1494 344.941 64.6064 344.141 64.6064 342.961C64.6064 341.809 65.1377 340.914 66.1924 340.914C67.2119 340.914 67.7588 341.746 67.7588 342.961C67.7588 344.199 67.2002 344.941 66.1924 344.941Z" fill="black"/>
<path d="M197.445 314H198.664L200.348 308.008H200.41L202.094 314H203.309L205.531 306H204.258L202.703 312.199H202.629L201.008 306H199.75L198.129 312.195H198.055L196.496 306H195.227L197.445 314ZM206.538 314H207.706V308H206.538V314ZM207.128 307.074C207.53 307.074 207.866 306.762 207.866 306.379C207.866 305.996 207.53 305.68 207.128 305.68C206.722 305.68 206.39 305.996 206.39 306.379C206.39 306.762 206.722 307.074 207.128 307.074ZM212.133 308H210.84V307.461C210.84 306.93 211.059 306.641 211.629 306.641C211.871 306.641 212.043 306.695 212.152 306.73L212.426 305.785C212.262 305.723 211.922 305.625 211.449 305.625C210.5 305.625 209.668 306.18 209.668 307.305V308H208.742V308.937H209.668V314H210.84V308.937H212.133V308ZM213.338 314H214.506V308H213.338V314ZM213.928 307.074C214.33 307.074 214.666 306.762 214.666 306.379C214.666 305.996 214.33 305.68 213.928 305.68C213.521 305.68 213.189 305.996 213.189 306.379C213.189 306.762 213.521 307.074 213.928 307.074Z" fill="black"/>
<path d="M195.879 346H200.711V344.961H197.086V338H195.879V346ZM203.74 346.133C204.732 346.133 205.291 345.629 205.514 345.18H205.561V346H206.701V342.016C206.701 340.27 205.326 339.922 204.373 339.922C203.287 339.922 202.287 340.359 201.896 341.453L202.994 341.703C203.166 341.277 203.604 340.867 204.389 340.867C205.143 340.867 205.529 341.262 205.529 341.941V341.969C205.529 342.395 205.092 342.387 204.014 342.512C202.877 342.645 201.713 342.941 201.713 344.305C201.713 345.484 202.6 346.133 203.74 346.133ZM203.994 345.195C203.334 345.195 202.857 344.898 202.857 344.32C202.857 343.695 203.412 343.473 204.088 343.383C204.467 343.332 205.365 343.23 205.533 343.062V343.836C205.533 344.547 204.967 345.195 203.994 345.195ZM212.058 343.512C212.062 344.531 211.304 345.016 210.647 345.016C209.925 345.016 209.425 344.492 209.425 343.676V340H208.257V343.816C208.257 345.305 209.073 346.078 210.226 346.078C211.128 346.078 211.741 345.602 212.019 344.961H212.081V346H213.229V340H212.058V343.512ZM215.967 342.437C215.967 341.48 216.553 340.934 217.365 340.934C218.158 340.934 218.639 341.453 218.639 342.324V346H219.807V342.184C219.807 340.699 218.99 339.922 217.764 339.922C216.861 339.922 216.271 340.34 215.994 340.977H215.92V340H214.799V346H215.967V342.437ZM223.619 346.117C224.713 346.117 225.143 345.449 225.354 345.066H225.451V346H226.592V338H225.424V340.973H225.354C225.143 340.602 224.744 339.922 223.627 339.922C222.178 339.922 221.111 341.066 221.111 343.012C221.111 344.953 222.162 346.117 223.619 346.117ZM223.877 345.121C222.834 345.121 222.291 344.203 222.291 343C222.291 341.809 222.822 340.914 223.877 340.914C224.896 340.914 225.443 341.746 225.443 343C225.443 344.262 224.885 345.121 223.877 345.121ZM228.259 346H229.427V342.336C229.427 341.551 230.032 340.984 230.86 340.984C231.103 340.984 231.376 341.027 231.47 341.055V339.937C231.353 339.922 231.122 339.91 230.974 339.91C230.271 339.91 229.669 340.309 229.45 340.953H229.388V340H228.259V346ZM233.401 348.25C234.366 348.25 234.976 347.746 235.323 346.801L237.804 340.012L236.542 340L235.022 344.656H234.96L233.44 340H232.19L234.386 346.078L234.241 346.477C233.944 347.273 233.526 347.34 232.886 347.164L232.604 348.121C232.745 348.184 233.05 348.25 233.401 348.25Z" fill="black"/>
<path d="M200.242 276.102H201.406C201.371 274.82 200.238 273.891 198.613 273.891C197.008 273.891 195.777 274.809 195.777 276.187C195.777 277.301 196.574 277.953 197.859 278.301L198.805 278.559C199.66 278.785 200.32 279.066 200.32 279.777C200.32 280.559 199.574 281.074 198.547 281.074C197.617 281.074 196.844 280.66 196.773 279.789H195.563C195.641 281.238 196.762 282.133 198.555 282.133C200.434 282.133 201.516 281.145 201.516 279.789C201.516 278.348 200.23 277.789 199.215 277.539L198.434 277.336C197.809 277.176 196.977 276.883 196.98 276.117C196.98 275.437 197.602 274.934 198.586 274.934C199.504 274.934 200.156 275.363 200.242 276.102ZM205.45 282.121C206.759 282.121 207.685 281.477 207.95 280.5L206.845 280.301C206.634 280.867 206.126 281.156 205.462 281.156C204.462 281.156 203.79 280.508 203.759 279.352H208.024V278.937C208.024 276.77 206.728 275.922 205.368 275.922C203.696 275.922 202.595 277.195 202.595 279.039C202.595 280.902 203.681 282.121 205.45 282.121ZM203.763 278.477C203.81 277.625 204.427 276.887 205.376 276.887C206.282 276.887 206.876 277.559 206.88 278.477H203.763ZM211.848 282.121C213.266 282.121 214.184 281.27 214.312 280.102H213.176C213.027 280.75 212.523 281.133 211.855 281.133C210.867 281.133 210.23 280.309 210.23 279C210.23 277.715 210.879 276.906 211.855 276.906C212.598 276.906 213.051 277.375 213.176 277.937H214.312C214.188 276.727 213.199 275.922 211.836 275.922C210.145 275.922 209.051 277.195 209.051 279.027C209.051 280.836 210.105 282.121 211.848 282.121ZM219.362 279.512C219.366 280.531 218.608 281.016 217.952 281.016C217.229 281.016 216.729 280.492 216.729 279.676V276H215.562V279.816C215.562 281.305 216.378 282.078 217.53 282.078C218.433 282.078 219.046 281.602 219.323 280.961H219.386V282H220.534V276H219.362V279.512ZM222.104 282H223.271V278.336C223.271 277.551 223.877 276.984 224.705 276.984C224.947 276.984 225.221 277.027 225.314 277.055V275.937C225.197 275.922 224.967 275.91 224.818 275.91C224.115 275.91 223.514 276.309 223.295 276.953H223.232V276H222.104V282ZM226.325 282H227.493V276H226.325V282ZM226.915 275.074C227.317 275.074 227.653 274.762 227.653 274.379C227.653 273.996 227.317 273.68 226.915 273.68C226.509 273.68 226.177 273.996 226.177 274.379C226.177 274.762 226.509 275.074 226.915 275.074ZM231.865 276H230.635V274.562H229.467V276H228.588V276.937H229.467V280.48C229.463 281.57 230.295 282.098 231.217 282.078C231.588 282.074 231.838 282.004 231.975 281.953L231.764 280.988C231.686 281.004 231.541 281.039 231.354 281.039C230.975 281.039 230.635 280.914 230.635 280.238V276.937H231.865V276ZM233.896 284.25C234.86 284.25 235.47 283.746 235.817 282.801L238.298 276.012L237.036 276L235.517 280.656H235.454L233.935 276H232.685L234.88 282.078L234.735 282.477C234.438 283.273 234.021 283.34 233.38 283.164L233.099 284.121C233.239 284.184 233.544 284.25 233.896 284.25Z" fill="black"/>
</svg>
