<svg width="40" height="40" viewBox="0 0 40 40" fill="none"
    xmlns="http://www.w3.org/2000/svg">
    <g clip-path="url(#clip0_3_2478)">
        <path d="M39.5225 20.4604C39.5225 19.1009 39.4123 17.734 39.1771 16.3965H20.3125V24.0981H31.1154C30.6671 26.582 29.2267 28.7794 27.1176 30.1757V35.1729H33.5626C37.3472 31.6895 39.5225 26.5453 39.5225 20.4604Z" fill="#4285F4"/>
        <path d="M20.3124 40.0014C25.7065 40.0014 30.2555 38.2303 33.5698 35.1732L27.1249 30.176C25.3317 31.3959 23.0168 32.0867 20.3198 32.0867C15.1021 32.0867 10.678 28.5665 9.09069 23.8339H2.43994V28.9854C5.83513 35.7391 12.7504 40.0014 20.3124 40.0014V40.0014Z" fill="#34A853"/>
        <path d="M9.0834 23.834C8.24563 21.3501 8.24563 18.6604 9.0834 16.1765V11.0249H2.44C-0.396668 16.6762 -0.396668 23.3343 2.44 28.9856L9.0834 23.834V23.834Z" fill="#FBBC04"/>
        <path d="M20.3124 7.9161C23.1638 7.87201 25.9196 8.94494 27.9847 10.9144L33.6948 5.20436C30.0791 1.80917 25.2803 -0.0574433 20.3124 0.00134778C12.7504 0.00134778 5.83513 4.2637 2.43994 11.0247L9.08334 16.1762C10.6633 11.4362 15.0947 7.9161 20.3124 7.9161V7.9161Z" fill="#EA4335"/>
    </g>
    <defs>
        <clipPath id="clip0_3_2478">
            <rect width="40" height="40" fill="white"/>
        </clipPath>
    </defs>
</svg>
