<svg width="336" height="60" viewBox="0 0 336 60" fill="none" xmlns="http://www.w3.org/2000/svg">
<path d="M1.29119 19H3.66264V13.4389H9.72869V19H12.1065V5.90909H9.72869V11.451H3.66264V5.90909H1.29119V19ZM18.8661 19.1918C21.7425 19.1918 23.5707 17.1655 23.5707 14.1293C23.5707 11.0866 21.7425 9.05398 18.8661 9.05398C15.9897 9.05398 14.1616 11.0866 14.1616 14.1293C14.1616 17.1655 15.9897 19.1918 18.8661 19.1918ZM18.8789 17.3381C17.2873 17.3381 16.5075 15.919 16.5075 14.1229C16.5075 12.3267 17.2873 10.8885 18.8789 10.8885C20.445 10.8885 21.2248 12.3267 21.2248 14.1229C21.2248 15.919 20.445 17.3381 18.8789 17.3381ZM31.7924 14.8707C31.7924 16.3665 30.725 17.108 29.7022 17.108C28.59 17.108 27.8485 16.3217 27.8485 15.0753V9.18182H25.5346V15.4332C25.5346 17.7919 26.877 19.1278 28.8074 19.1278C30.2775 19.1278 31.313 18.3544 31.7605 17.255H31.8627V19H34.1064V9.18182H31.7924V14.8707ZM44.2457 11.777C43.9261 10.1151 42.5966 9.05398 40.2955 9.05398C37.9304 9.05398 36.3196 10.2173 36.326 12.0327C36.3196 13.4645 37.2017 14.4105 39.0874 14.8004L40.7621 15.152C41.6634 15.3501 42.0852 15.7145 42.0852 16.2706C42.0852 16.9418 41.3565 17.4467 40.2571 17.4467C39.196 17.4467 38.5057 16.9865 38.3075 16.1044L36.0511 16.3217C36.3388 18.1243 37.8537 19.1918 40.2635 19.1918C42.718 19.1918 44.4503 17.9197 44.4567 16.0597C44.4503 14.6598 43.549 13.8033 41.6953 13.4006L40.0206 13.0426C39.0234 12.8189 38.6271 12.4737 38.6335 11.9048C38.6271 11.2401 39.3622 10.7798 40.3274 10.7798C41.3949 10.7798 41.9574 11.3615 42.1364 12.0071L44.2457 11.777ZM50.7113 19.1918C52.9996 19.1918 54.5721 18.0732 54.9812 16.3665L52.8207 16.1236C52.5075 16.9545 51.7404 17.3892 50.7433 17.3892C49.2475 17.3892 48.2567 16.4048 48.2376 14.7237H55.0771V14.0142C55.0771 10.5689 53.006 9.05398 50.5898 9.05398C47.7773 9.05398 45.9428 11.1186 45.9428 14.1484C45.9428 17.2294 47.7518 19.1918 50.7113 19.1918ZM48.244 13.1641C48.3143 11.9112 49.2411 10.8565 50.6218 10.8565C51.9513 10.8565 52.8462 11.8281 52.859 13.1641H48.244ZM61.6017 19H63.9732V14.206H66.3894L68.959 19H71.6053L68.7736 13.8097C70.3141 13.1896 71.1259 11.8729 71.1259 10.0959C71.1259 7.59659 69.5151 5.90909 66.5108 5.90909H61.6017V19ZM63.9732 12.2372V7.89062H66.1465C67.9171 7.89062 68.7097 8.70241 68.7097 10.0959C68.7097 11.4893 67.9171 12.2372 66.1593 12.2372H63.9732ZM79.4643 14.8707C79.4643 16.3665 78.3968 17.108 77.3741 17.108C76.2619 17.108 75.5204 16.3217 75.5204 15.0753V9.18182H73.2065V15.4332C73.2065 17.7919 74.5488 19.1278 76.4792 19.1278C77.9494 19.1278 78.9849 18.3544 79.4324 17.255H79.5346V19H81.7782V9.18182H79.4643V14.8707ZM86.4716 5.90909H84.1577V19H86.4716V5.90909ZM93.1976 19.1918C95.486 19.1918 97.0584 18.0732 97.4675 16.3665L95.307 16.1236C94.9938 16.9545 94.2267 17.3892 93.2296 17.3892C91.7338 17.3892 90.7431 16.4048 90.7239 14.7237H97.5634V14.0142C97.5634 10.5689 95.4924 9.05398 93.0762 9.05398C90.2637 9.05398 88.4292 11.1186 88.4292 14.1484C88.4292 17.2294 90.2381 19.1918 93.1976 19.1918ZM90.7303 13.1641C90.8006 11.9112 91.7275 10.8565 93.1081 10.8565C94.4377 10.8565 95.3326 11.8281 95.3453 13.1641H90.7303ZM107.281 11.777C106.961 10.1151 105.632 9.05398 103.331 9.05398C100.966 9.05398 99.3548 10.2173 99.3612 12.0327C99.3548 13.4645 100.237 14.4105 102.123 14.8004L103.797 15.152C104.699 15.3501 105.12 15.7145 105.12 16.2706C105.12 16.9418 104.392 17.4467 103.292 17.4467C102.231 17.4467 101.541 16.9865 101.343 16.1044L99.0863 16.3217C99.3739 18.1243 100.889 19.1918 103.299 19.1918C105.753 19.1918 107.485 17.9197 107.492 16.0597C107.485 14.6598 106.584 13.8033 104.73 13.4006L103.056 13.0426C102.059 12.8189 101.662 12.4737 101.669 11.9048C101.662 11.2401 102.397 10.7798 103.363 10.7798C104.43 10.7798 104.993 11.3615 105.172 12.0071L107.281 11.777Z" fill="black"/>
<path d="M4.78409 53C7.44318 53 8.98153 51.3509 8.98153 48.6236C8.98153 45.9091 7.44318 44.2727 4.87358 44.2727H1.95881V53H4.78409ZM3.27557 51.8494V45.4233H4.79261C6.7017 45.4233 7.68608 46.5653 7.68608 48.6236C7.68608 50.6903 6.7017 51.8494 4.71165 51.8494H3.27557ZM13.2738 53.1321C15.119 53.1321 16.3249 51.7812 16.3249 49.7571C16.3249 47.7202 15.119 46.3693 13.2738 46.3693C11.4286 46.3693 10.2227 47.7202 10.2227 49.7571C10.2227 51.7812 11.4286 53.1321 13.2738 53.1321ZM13.2781 52.0625C12.0721 52.0625 11.5096 51.0099 11.5096 49.7528C11.5096 48.5 12.0721 47.4347 13.2781 47.4347C14.4755 47.4347 15.038 48.5 15.038 49.7528C15.038 51.0099 14.4755 52.0625 13.2781 52.0625ZM20.4915 55.5909C22.1577 55.5909 23.4446 54.8281 23.4446 53.1449V46.4545H22.196V47.5156H22.1023C21.8764 47.1108 21.4247 46.3693 20.206 46.3693C18.625 46.3693 17.4616 47.6179 17.4616 49.7017C17.4616 51.7898 18.6506 52.902 20.1974 52.902C21.3991 52.902 21.8636 52.2244 22.0938 51.8068H22.1747V53.0938C22.1747 54.1207 21.4716 54.5639 20.5043 54.5639C19.4432 54.5639 19.0298 54.0312 18.804 53.6562L17.7088 54.108C18.054 54.9091 18.9276 55.5909 20.4915 55.5909ZM20.4787 51.8452C19.3409 51.8452 18.7486 50.9716 18.7486 49.6847C18.7486 48.4276 19.3281 47.4517 20.4787 47.4517C21.5909 47.4517 22.1875 48.3594 22.1875 49.6847C22.1875 51.0355 21.5781 51.8452 20.4787 51.8452ZM28.4315 53H29.7482V49.1946H33.4556V48.0653H29.7482V45.4062H33.8434V44.2727H28.4315V53ZM35.2784 53H36.5526V49.0028C36.5526 48.1463 37.2131 47.5284 38.1165 47.5284C38.3807 47.5284 38.679 47.5753 38.7812 47.6051V46.3864C38.6534 46.3693 38.402 46.3565 38.2401 46.3565C37.473 46.3565 36.8168 46.7912 36.5781 47.4943H36.5099V46.4545H35.2784V53ZM39.8839 53H41.158V46.4545H39.8839V53ZM40.5273 45.4446C40.9663 45.4446 41.3327 45.1037 41.3327 44.6861C41.3327 44.2685 40.9663 43.9233 40.5273 43.9233C40.0842 43.9233 39.7219 44.2685 39.7219 44.6861C39.7219 45.1037 40.0842 45.4446 40.5273 45.4446ZM45.6932 53.1321C47.1207 53.1321 48.1307 52.429 48.4205 51.3636L47.2145 51.1463C46.9844 51.7642 46.4304 52.0795 45.706 52.0795C44.6151 52.0795 43.8821 51.3722 43.848 50.1108H48.5014V49.6591C48.5014 47.294 47.0866 46.3693 45.6037 46.3693C43.7798 46.3693 42.5781 47.7585 42.5781 49.7699C42.5781 51.8026 43.7628 53.1321 45.6932 53.1321ZM43.8523 49.1562C43.9034 48.2273 44.5767 47.4219 45.6122 47.4219C46.6009 47.4219 47.2486 48.1548 47.2528 49.1562H43.8523ZM51.1893 49.1136C51.1893 48.0696 51.8285 47.473 52.7148 47.473C53.5799 47.473 54.104 48.0398 54.104 48.9901V53H55.3782V48.8366C55.3782 47.2173 54.4876 46.3693 53.1495 46.3693C52.1651 46.3693 51.5217 46.8253 51.2191 47.5199H51.1381V46.4545H49.9151V53H51.1893V49.1136ZM59.5373 53.1278C60.7305 53.1278 61.1992 52.3991 61.4293 51.9815H61.5359V53H62.7802V44.2727H61.506V47.5156H61.4293C61.1992 47.1108 60.7646 46.3693 59.5458 46.3693C57.9648 46.3693 56.8015 47.6179 56.8015 49.7401C56.8015 51.858 57.9478 53.1278 59.5373 53.1278ZM59.8185 52.0412C58.6808 52.0412 58.0884 51.0398 58.0884 49.7273C58.0884 48.4276 58.668 47.4517 59.8185 47.4517C60.9308 47.4517 61.5273 48.3594 61.5273 49.7273C61.5273 51.1037 60.918 52.0412 59.8185 52.0412ZM65.8729 44.2727H64.5987V53H65.8729V44.2727ZM68.3924 55.4545C69.445 55.4545 70.1097 54.9048 70.489 53.8736L73.195 46.4673L71.8185 46.4545L70.1609 51.5341H70.0927L68.435 46.4545H67.0714L69.4663 53.0852L69.3086 53.5199C68.9847 54.3892 68.5288 54.4616 67.8299 54.2699L67.5231 55.3139C67.6765 55.3821 68.0089 55.4545 68.3924 55.4545ZM75.6431 51.8068H74.4158L74.3732 52.2841C74.2752 53.4389 74.0025 54.6023 73.8874 55.1307H74.7908C74.9954 54.5724 75.4471 53.294 75.5792 52.2713L75.6431 51.8068ZM87.8285 47.1108C87.5302 45.2443 86.0685 44.1534 84.2234 44.1534C81.9648 44.1534 80.2987 45.8452 80.2987 48.6364C80.2987 51.4276 81.9563 53.1193 84.2234 53.1193C86.141 53.1193 87.543 51.9176 87.8285 50.1918L86.4989 50.1875C86.2731 51.304 85.3356 51.9176 84.2319 51.9176C82.7362 51.9176 81.6069 50.7713 81.6069 48.6364C81.6069 46.5185 82.7319 45.3551 84.2362 45.3551C85.3484 45.3551 86.2816 45.9815 86.4989 47.1108H87.8285ZM91.2067 53.1449C92.2891 53.1449 92.8984 52.5952 93.1413 52.1051H93.1925V53H94.4368V48.6534C94.4368 46.7486 92.9368 46.3693 91.897 46.3693C90.7124 46.3693 89.6214 46.8466 89.1953 48.0398L90.3928 48.3125C90.5803 47.848 91.0575 47.4006 91.9141 47.4006C92.7365 47.4006 93.1584 47.831 93.1584 48.5724V48.6023C93.1584 49.0668 92.6811 49.0582 91.505 49.1946C90.2649 49.3395 88.995 49.6634 88.995 51.1506C88.995 52.4375 89.9624 53.1449 91.2067 53.1449ZM91.4837 52.1222C90.7635 52.1222 90.2436 51.7983 90.2436 51.1676C90.2436 50.4858 90.8487 50.2429 91.5859 50.1449C91.9993 50.0895 92.9794 49.9787 93.1626 49.7955V50.6392C93.1626 51.4148 92.5447 52.1222 91.4837 52.1222ZM96.1339 53H97.408V49.0028C97.408 48.1463 98.0685 47.5284 98.9719 47.5284C99.2362 47.5284 99.5344 47.5753 99.6367 47.6051V46.3864C99.5089 46.3693 99.2575 46.3565 99.0955 46.3565C98.3285 46.3565 97.6722 46.7912 97.4336 47.4943H97.3654V46.4545H96.1339V53ZM104.017 53H105.334V49.1946H109.042V48.0653H105.334V45.4062H109.429V44.2727H104.017V53ZM110.864 53H112.138V49.0028C112.138 48.1463 112.799 47.5284 113.702 47.5284C113.967 47.5284 114.265 47.5753 114.367 47.6051V46.3864C114.239 46.3693 113.988 46.3565 113.826 46.3565C113.059 46.3565 112.403 46.7912 112.164 47.4943H112.096V46.4545H110.864V53ZM115.47 53H116.744V46.4545H115.47V53ZM116.113 45.4446C116.552 45.4446 116.919 45.1037 116.919 44.6861C116.919 44.2685 116.552 43.9233 116.113 43.9233C115.67 43.9233 115.308 44.2685 115.308 44.6861C115.308 45.1037 115.67 45.4446 116.113 45.4446ZM121.279 53.1321C122.707 53.1321 123.717 52.429 124.006 51.3636L122.8 51.1463C122.57 51.7642 122.016 52.0795 121.292 52.0795C120.201 52.0795 119.468 51.3722 119.434 50.1108H124.087V49.6591C124.087 47.294 122.673 46.3693 121.19 46.3693C119.366 46.3693 118.164 47.7585 118.164 49.7699C118.164 51.8026 119.349 53.1321 121.279 53.1321ZM119.438 49.1562C119.489 48.2273 120.163 47.4219 121.198 47.4219C122.187 47.4219 122.835 48.1548 122.839 49.1562H119.438ZM126.775 49.1136C126.775 48.0696 127.414 47.473 128.301 47.473C129.166 47.473 129.69 48.0398 129.69 48.9901V53H130.964V48.8366C130.964 47.2173 130.074 46.3693 128.735 46.3693C127.751 46.3693 127.108 46.8253 126.805 47.5199H126.724V46.4545H125.501V53H126.775V49.1136ZM135.123 53.1278C136.316 53.1278 136.785 52.3991 137.015 51.9815H137.122V53H138.366V44.2727H137.092V47.5156H137.015C136.785 47.1108 136.35 46.3693 135.132 46.3693C133.551 46.3693 132.387 47.6179 132.387 49.7401C132.387 51.858 133.534 53.1278 135.123 53.1278ZM135.404 52.0412C134.267 52.0412 133.674 51.0398 133.674 49.7273C133.674 48.4276 134.254 47.4517 135.404 47.4517C136.517 47.4517 137.113 48.3594 137.113 49.7273C137.113 51.1037 136.504 52.0412 135.404 52.0412ZM141.459 44.2727H140.185V53H141.459V44.2727ZM143.978 55.4545C145.031 55.4545 145.696 54.9048 146.075 53.8736L148.781 46.4673L147.404 46.4545L145.747 51.5341H145.679L144.021 46.4545H142.657L145.052 53.0852L144.895 53.5199C144.571 54.3892 144.115 54.4616 143.416 54.2699L143.109 55.3139C143.262 55.3821 143.595 55.4545 143.978 55.4545ZM151.229 51.8068H150.002L149.959 52.2841C149.861 53.4389 149.588 54.6023 149.473 55.1307H150.377C150.581 54.5724 151.033 53.294 151.165 52.2713L151.229 51.8068ZM163.21 44.2727H161.906V50.6818H161.825L157.385 44.2727H156.166V53H157.483V46.5994H157.564L162 53H163.21V44.2727ZM167.786 53.1321C169.631 53.1321 170.837 51.7812 170.837 49.7571C170.837 47.7202 169.631 46.3693 167.786 46.3693C165.94 46.3693 164.734 47.7202 164.734 49.7571C164.734 51.7812 165.94 53.1321 167.786 53.1321ZM167.79 52.0625C166.584 52.0625 166.021 51.0099 166.021 49.7528C166.021 48.5 166.584 47.4347 167.79 47.4347C168.987 47.4347 169.55 48.5 169.55 49.7528C169.55 51.0099 168.987 52.0625 167.79 52.0625ZM180.297 46.5653H181.567C181.528 45.1676 180.293 44.1534 178.52 44.1534C176.768 44.1534 175.426 45.1548 175.426 46.6591C175.426 47.8736 176.295 48.5852 177.697 48.9645L178.729 49.2457C179.662 49.4929 180.382 49.7997 180.382 50.5753C180.382 51.4276 179.568 51.9901 178.447 51.9901C177.433 51.9901 176.589 51.5384 176.513 50.5881H175.192C175.277 52.169 176.5 53.1449 178.456 53.1449C180.506 53.1449 181.686 52.0668 181.686 50.5881C181.686 49.0156 180.284 48.4062 179.176 48.1335L178.324 47.9119C177.642 47.7372 176.734 47.4176 176.739 46.5824C176.739 45.8409 177.416 45.2912 178.49 45.2912C179.491 45.2912 180.203 45.7599 180.297 46.5653ZM183.157 53H184.431V48.9645C184.431 48.0824 185.049 47.4688 185.774 47.4688C186.481 47.4688 186.971 47.9375 186.971 48.6491V53H188.241V48.8281C188.241 48.0398 188.723 47.4688 189.554 47.4688C190.227 47.4688 190.781 47.8438 190.781 48.7301V53H192.055V48.6108C192.055 47.1151 191.22 46.3693 190.035 46.3693C189.093 46.3693 188.386 46.821 188.071 47.5199H188.002C187.717 46.804 187.116 46.3693 186.243 46.3693C185.377 46.3693 184.734 46.7997 184.461 47.5199H184.38V46.4545H183.157V53ZM196.52 53.1321C198.365 53.1321 199.571 51.7812 199.571 49.7571C199.571 47.7202 198.365 46.3693 196.52 46.3693C194.675 46.3693 193.469 47.7202 193.469 49.7571C193.469 51.7812 194.675 53.1321 196.52 53.1321ZM196.524 52.0625C195.318 52.0625 194.756 51.0099 194.756 49.7528C194.756 48.5 195.318 47.4347 196.524 47.4347C197.722 47.4347 198.284 48.5 198.284 49.7528C198.284 51.0099 197.722 52.0625 196.524 52.0625ZM200.993 53H202.267V50.6776L202.902 50.0426L205.127 53H206.691L203.861 49.2628L206.512 46.4545H204.986L202.378 49.2244H202.267V44.2727H200.993V53ZM207.673 53H208.947V46.4545H207.673V53ZM208.316 45.4446C208.755 45.4446 209.122 45.1037 209.122 44.6861C209.122 44.2685 208.755 43.9233 208.316 43.9233C207.873 43.9233 207.511 44.2685 207.511 44.6861C207.511 45.1037 207.873 45.4446 208.316 45.4446ZM211.935 49.1136C211.935 48.0696 212.575 47.473 213.461 47.473C214.326 47.473 214.85 48.0398 214.85 48.9901V53H216.124V48.8366C216.124 47.2173 215.234 46.3693 213.896 46.3693C212.911 46.3693 212.268 46.8253 211.965 47.5199H211.884V46.4545H210.661V53H211.935V49.1136ZM220.577 55.5909C222.244 55.5909 223.531 54.8281 223.531 53.1449V46.4545H222.282V47.5156H222.188C221.962 47.1108 221.511 46.3693 220.292 46.3693C218.711 46.3693 217.548 47.6179 217.548 49.7017C217.548 51.7898 218.737 52.902 220.283 52.902C221.485 52.902 221.95 52.2244 222.18 51.8068H222.261V53.0938C222.261 54.1207 221.558 54.5639 220.59 54.5639C219.529 54.5639 219.116 54.0312 218.89 53.6562L217.795 54.108C218.14 54.9091 219.013 55.5909 220.577 55.5909ZM220.565 51.8452C219.427 51.8452 218.835 50.9716 218.835 49.6847C218.835 48.4276 219.414 47.4517 220.565 47.4517C221.677 47.4517 222.273 48.3594 222.273 49.6847C222.273 51.0355 221.664 51.8452 220.565 51.8452Z" fill="black"/>
</svg>
