<svg width="18" height="11" viewBox="0 0 18 11" fill="none"
    xmlns="http://www.w3.org/2000/svg">
    <path fill-rule="evenodd" clip-rule="evenodd" d="M17 0.5H16C15.4477 0.5 15 0.919733 15 1.4375V9.5625C15 10.0803 15.4477 10.5 16 10.5H17C17.5523 10.5 18 10.0803 18 9.5625V1.4375C18 0.919733 17.5523 0.5 17 0.5ZM11.0001 2.5H12.0001C12.5524 2.5 13.0001 2.92981 13.0001 3.46V9.54C13.0001 10.0702 12.5524 10.5 12.0001 10.5H11.0001C10.4478 10.5 10.0001 10.0702 10.0001 9.54V3.46C10.0001 2.92981 10.4478 2.5 11.0001 2.5ZM7 4.5H6C5.44772 4.5 5 4.94772 5 5.5V9.5C5 10.0523 5.44772 10.5 6 10.5H7C7.55228 10.5 8 10.0523 8 9.5V5.5C8 4.94772 7.55228 4.5 7 4.5ZM2 6.5H1C0.447715 6.5 0 6.94772 0 7.5V9.5C0 10.0523 0.447715 10.5 1 10.5H2C2.55228 10.5 3 10.0523 3 9.5V7.5C3 6.94772 2.55228 6.5 2 6.5Z" fill="#090A0A"/>
</svg>
