<svg width="295" height="32" viewBox="0 0 295 32" fill="none" xmlns="http://www.w3.org/2000/svg">
<line x1="10.0018" y1="25.5" x2="292.002" y2="26.5" stroke="black"/>
<circle cx="5.5" cy="25.5" r="5.5" fill="#818181"/>
<circle cx="74.5" cy="25.5" r="5.5" fill="#161515"/>
<circle cx="219.5" cy="25.5" r="5.5" fill="#101010"/>
<circle cx="289.5" cy="26.5" r="5.5" fill="#818181"/>
<rect x="77" y="24" width="140" height="4" fill="black"/>
<path d="M61.1406 13.0909H61.9418L61.946 12.1321C63.7486 12 64.7798 10.9688 64.7798 9.58807C64.7798 8.01562 63.3778 7.40625 62.2699 7.13352L61.9588 7.05256L61.9673 4.31676C62.7642 4.4233 63.3097 4.86648 63.3906 5.56534H64.6605C64.6264 4.26562 63.5526 3.29403 61.9716 3.16619L61.9759 2.18182H61.1747L61.1705 3.17472C59.6406 3.32812 58.5199 4.28267 58.5199 5.65909C58.5199 6.87358 59.3892 7.58523 60.7912 7.96449L61.1577 8.0625L61.1491 10.9645C60.3182 10.8622 59.6747 10.4105 59.6065 9.58807H58.2855C58.3665 11.0582 59.4276 12.0043 61.1449 12.1321L61.1406 13.0909ZM61.9503 10.9645L61.9588 8.28409C62.8239 8.52273 63.4759 8.83807 63.4759 9.57528C63.4759 10.321 62.8537 10.8452 61.9503 10.9645ZM61.1619 6.83949C60.527 6.65199 59.8281 6.31534 59.8324 5.58239C59.8324 4.94318 60.3395 4.4446 61.1662 4.32102L61.1619 6.83949ZM69.1147 12.1193C70.8704 12.1193 72.1232 10.8793 72.119 9.17898C72.1232 7.49148 70.9471 6.2642 69.3576 6.2642C68.7099 6.2642 68.109 6.51136 67.7681 6.84375H67.717L67.994 4.40199H71.6971V3.27273H66.8988L66.4087 7.67045L67.6147 7.84943C67.9428 7.5554 68.5309 7.35511 69.0593 7.35511C70.0948 7.36364 70.8448 8.1392 70.8448 9.20455C70.8448 10.2528 70.1161 11.0114 69.1147 11.0114C68.271 11.0114 67.6019 10.4744 67.5337 9.72443H66.2553C66.3065 11.1136 67.5124 12.1193 69.1147 12.1193ZM76.7138 12.1449C78.7294 12.1449 79.9098 10.5 79.9098 7.64062C79.9098 4.80256 78.7124 3.15341 76.7138 3.15341C74.7109 3.15341 73.5178 4.7983 73.5135 7.64062C73.5135 10.4957 74.6939 12.1406 76.7138 12.1449ZM76.7138 11.0071C75.5334 11.0071 74.8217 9.82244 74.8217 7.64062C74.826 5.46733 75.5376 4.26989 76.7138 4.26989C77.8857 4.26989 78.6016 5.46733 78.6016 7.64062C78.6016 9.82244 77.8899 11.0071 76.7138 11.0071ZM84.4599 12.1449C86.4755 12.1449 87.6559 10.5 87.6559 7.64062C87.6559 4.80256 86.4585 3.15341 84.4599 3.15341C82.457 3.15341 81.2638 4.7983 81.2596 7.64062C81.2596 10.4957 82.44 12.1406 84.4599 12.1449ZM84.4599 11.0071C83.2795 11.0071 82.5678 9.82244 82.5678 7.64062C82.5721 5.46733 83.2837 4.26989 84.4599 4.26989C85.6317 4.26989 86.3477 5.46733 86.3477 7.64062C86.3477 9.82244 85.636 11.0071 84.4599 11.0071Z" fill="#090A0A"/>
<path d="M203.461 13.0909H204.262L204.266 12.1321C206.069 12 207.1 10.9688 207.1 9.58807C207.1 8.01562 205.698 7.40625 204.59 7.13352L204.279 7.05256L204.288 4.31676C205.085 4.4233 205.63 4.86648 205.711 5.56534H206.981C206.947 4.26562 205.873 3.29403 204.292 3.16619L204.296 2.18182H203.495L203.491 3.17472C201.961 3.32812 200.84 4.28267 200.84 5.65909C200.84 6.87358 201.71 7.58523 203.112 7.96449L203.478 8.0625L203.469 10.9645C202.638 10.8622 201.995 10.4105 201.927 9.58807H200.606C200.687 11.0582 201.748 12.0043 203.465 12.1321L203.461 13.0909ZM204.271 10.9645L204.279 8.28409C205.144 8.52273 205.796 8.83807 205.796 9.57528C205.796 10.321 205.174 10.8452 204.271 10.9645ZM203.482 6.83949C202.847 6.65199 202.148 6.31534 202.153 5.58239C202.153 4.94318 202.66 4.4446 203.487 4.32102L203.482 6.83949ZM208.554 12H214.299V10.8707H210.37V10.8068L212.104 8.99148C213.702 7.37642 214.158 6.60511 214.158 5.62926C214.158 4.22727 213.016 3.15341 211.371 3.15341C209.739 3.15341 208.546 4.21023 208.546 5.80398H209.803C209.799 4.86648 210.404 4.25284 211.346 4.25284C212.232 4.25284 212.905 4.7983 212.905 5.66761C212.905 6.43892 212.445 6.9929 211.507 7.9858L208.554 11.0455V12ZM218.794 12.1193C220.55 12.1193 221.803 10.8793 221.799 9.17898C221.803 7.49148 220.627 6.2642 219.037 6.2642C218.39 6.2642 217.789 6.51136 217.448 6.84375H217.397L217.674 4.40199H221.377V3.27273H216.578L216.088 7.67045L217.294 7.84943C217.623 7.5554 218.211 7.35511 218.739 7.35511C219.775 7.36364 220.525 8.1392 220.525 9.20455C220.525 10.2528 219.796 11.0114 218.794 11.0114C217.951 11.0114 217.282 10.4744 217.213 9.72443H215.935C215.986 11.1136 217.192 12.1193 218.794 12.1193ZM226.393 12.1449C228.409 12.1449 229.589 10.5 229.589 7.64062C229.589 4.80256 228.392 3.15341 226.393 3.15341C224.391 3.15341 223.197 4.7983 223.193 7.64062C223.193 10.4957 224.374 12.1406 226.393 12.1449ZM226.393 11.0071C225.213 11.0071 224.501 9.82244 224.501 7.64062C224.506 5.46733 225.217 4.26989 226.393 4.26989C227.565 4.26989 228.281 5.46733 228.281 7.64062C228.281 9.82244 227.57 11.0071 226.393 11.0071ZM234.14 12.1449C236.155 12.1449 237.336 10.5 237.336 7.64062C237.336 4.80256 236.138 3.15341 234.14 3.15341C232.137 3.15341 230.944 4.7983 230.939 7.64062C230.939 10.4957 232.12 12.1406 234.14 12.1449ZM234.14 11.0071C232.959 11.0071 232.248 9.82244 232.248 7.64062C232.252 5.46733 232.963 4.26989 234.14 4.26989C235.311 4.26989 236.027 5.46733 236.027 7.64062C236.027 9.82244 235.316 11.0071 234.14 11.0071Z" fill="#090A0A"/>
</svg>
