<svg width="31" height="13" viewBox="0 0 31 13" fill="none"
    xmlns="http://www.w3.org/2000/svg">
    <path d="M4.98864 0.204545C2.54545 0.181818 0.948864 1.9375 0.948864 4.14205C0.954545 6.36364 2.5625 7.96591 4.57955 7.96591C5.8125 7.96591 6.86932 7.36364 7.46591 6.38636H7.55682C7.55114 9.0625 6.54545 10.625 4.84091 10.625C3.72727 10.625 3.01136 9.94318 2.78409 8.94886H1.05114C1.30682 10.8295 2.76136 12.1591 4.84091 12.1591C7.54545 12.1591 9.23864 9.83523 9.23864 5.76136C9.23295 1.51136 7.0625 0.221591 4.98864 0.204545ZM4.99432 1.68182C6.34091 1.68182 7.33523 2.82386 7.33523 4.10227C7.34091 5.39773 6.28977 6.53409 4.96023 6.53409C3.625 6.53409 2.65909 5.46591 2.65341 4.11932C2.65341 2.76705 3.65909 1.68182 4.99432 1.68182ZM12.4332 4.72727C13.0526 4.72727 13.5696 4.22159 13.5696 3.59091C13.5696 2.97159 13.0526 2.46023 12.4332 2.46023C11.8082 2.46023 11.2969 2.97159 11.2969 3.59091C11.2969 4.22159 11.8082 4.72727 12.4332 4.72727ZM12.4332 10.5568C13.0526 10.5568 13.5696 10.0511 13.5696 9.42045C13.5696 8.80114 13.0526 8.28977 12.4332 8.28977C11.8082 8.28977 11.2969 8.80114 11.2969 9.42045C11.2969 10.0511 11.8082 10.5568 12.4332 10.5568ZM15.5781 9.72727H21.0952V12H22.7713V9.72727H24.3111V8.23864H22.7713V0.363636H20.6065L15.5781 8.30682V9.72727ZM21.1065 8.23864H17.419V8.14773L21.0156 2.45455H21.1065V8.23864ZM30.5497 0.363636H28.8395L25.9361 2.26136V3.94318L28.7202 2.125H28.7884V12H30.5497V0.363636Z" fill="#090A0A"/>
</svg>
